<?xml version="1.0" encoding="UTF-8" standalone="no"?>
<!DOCTYPE svg PUBLIC "-//W3C//DTD SVG 1.1//EN" "http://www.w3.org/Graphics/SVG/1.1/DTD/svg11.dtd">
<svg width="100%" height="100%" viewBox="0 0 2200 1186" version="1.1" xmlns="http://www.w3.org/2000/svg" xmlns:xlink="http://www.w3.org/1999/xlink" xml:space="preserve" xmlns:serif="http://www.serif.com/" style="fill-rule:evenodd;clip-rule:evenodd;stroke-linejoin:round;stroke-miterlimit:2;">
    <path d="M726,624C711.46,627.364 697.218,633.113 683,637.656L591,667.996C491.59,701.87 392.332,740.002 302,794.2C271.036,812.778 238.403,834.004 216.236,863C205.792,876.66 197.628,896.937 207.969,913C220.975,933.2 250.049,932.264 270.999,930.17C325.529,924.718 378.227,907.925 429.999,890.668C477.713,874.763 524.749,855.154 569.999,833.258C624.779,806.752 678.111,777.17 723.999,736.714C740.733,721.962 757.334,702.791 765.987,682C769.191,674.303 771.9,666.334 772.832,658C773.332,653.622 772.917,647.944 777.146,645.278C782.449,641.935 790.068,640.642 795.999,638.668L993.999,575.668L1117,534.693C1140.55,526.311 1164.33,518.41 1187,507.781C1201.2,501.129 1214.9,494.024 1228,485.334C1233.66,481.577 1240.8,477.009 1238.57,469.041C1237.22,464.273 1232.47,462.809 1228,463.099C1219.32,463.662 1210.1,468.983 1202,471.949C1165,485.485 1127.4,497.549 1090,510.002C1010.62,536.462 930.411,561.994 849.999,585.142C830.269,590.822 810.486,596.869 790.999,603.334C785.359,605.206 779.639,606.801 773.999,608.668C771.622,609.454 768.646,610.901 766.092,610.213C762.882,609.349 761.047,605.537 759.329,603.001C755.502,597.349 751.235,592.113 746.713,587.001C736.563,575.527 723.289,565.947 710.999,556.884C705.349,552.718 696.539,548.491 692.465,542.704C690.492,539.901 692.642,537.87 695.023,536.352C700.721,532.719 707.105,529.906 712.999,526.576L788.999,483.201C868.076,436.011 947.199,386.058 1012,319.996C1016.42,315.496 1020.6,310.783 1024.7,306C1041.72,286.175 1067.45,252.126 1050.87,225C1040.97,208.806 1021.55,205 1003.99,205C967.637,205 930.962,218.697 897.989,232.85C841.977,256.89 790.009,291.036 742.989,329.576C711.659,355.256 681.266,383.494 656.884,416C640.921,437.282 626.25,461.23 622.417,488C621.119,497.068 621.657,507.082 623.654,516C624.489,519.728 627.634,525.18 625.292,528.787C622.725,532.737 616.04,534.727 611.989,536.753L579.989,552.743C542.106,571.073 503.793,588.143 464.989,604.425C440.991,614.495 416.943,624.765 391.989,632.281C375.432,637.269 358.739,641.071 341.989,645.241C335.616,646.828 329.969,651.007 329.242,658.001C328.194,668.087 338.125,673.535 346.989,671.601C354.893,669.885 361.896,664.491 369.989,662.466C394.141,656.426 418.835,652.733 442.989,646.616C492.952,633.964 541.681,613.138 587.989,590.732L632.989,568.742C637.829,566.322 645.439,560.504 650.989,560.812C653.765,560.967 655.943,563.094 657.989,564.742L671,575C684.987,585.987 700.217,595.545 713,608.015C717.918,612.812 723.476,617.485 726,624ZM717.299,664.42C682.861,676.673 647.422,686.45 613,698.692C523.157,730.668 433.953,764.578 350,810.232C320.134,826.472 290.882,844.252 265,866.429C258.87,871.681 252.75,877.591 247.823,884.001C246.263,886.031 242.678,890.521 246.323,892.398C248.463,893.496 251.671,893 253.99,893.001C260.425,893.004 266.597,892.671 272.99,892.076C298.788,889.676 323.982,882.802 348.99,876.371C386.737,866.665 423.605,853.266 459.99,839.425C522.584,815.615 584.262,787.437 640.99,751.682C668.5,734.344 696.578,714.485 717.185,689.002C722.005,683.042 726.318,676.872 729.742,670.002C731.539,666.395 733.512,662.943 731.991,659.004L717.299,664.42ZM971,745.011C966.096,755.501 959.665,764.529 956.9,776.011C950.964,800.654 966.747,820.257 992,820.881C1020.7,821.581 1051.1,805.744 1076,793.257C1087.66,787.41 1099.36,780.537 1110,772.957C1114.5,769.757 1119.35,765.06 1118.74,759C1117.44,745.958 1103.06,749.71 1095,752.68C1070.53,761.698 1046.82,772.6 1022,780.67C1014.57,783.083 1006.83,785.573 999,786.06C996.4,786.223 991.81,786.768 991.955,782.888C992.08,779.598 994.835,775.768 996.428,773.001C1001.1,764.877 1006.94,757.295 1012.8,750.001C1035.37,721.927 1062.96,699.501 1089,674.911C1100.63,663.924 1103.85,642.173 1084,637.681C1074.9,635.621 1066.37,640.986 1059,645.576L1021,668.95C969.833,700.978 918.018,734.238 864,761.247C846.24,770.127 828.348,779.413 809,784.37C804.5,785.524 792.263,789.99 789.068,784.682C786.764,780.855 790.868,774.342 792.64,771C798.828,759.33 807.338,748.764 816.17,739C842.278,710.133 877.466,688.04 913,672.72C924.843,667.613 941.86,659.437 955,662C951.38,670.69 946.182,678.646 940.334,686C937.651,689.374 933.942,692.276 931.758,696C929.796,699.344 930.755,703.87 935.043,704.623C939.143,705.343 941.658,701.606 944.17,699.086C947.722,695.521 951.952,692.801 956,689.849C971.1,678.833 1000.92,659.129 986.147,636.999C984.455,634.489 982.379,632.26 979.996,630.393C976.529,627.673 972.244,626.233 968,625.235C946.94,620.275 922.45,628.242 903,635.999C854.9,655.181 808.073,685.725 776.12,726.999C759.17,748.894 734.514,787.495 759.093,812.959C762.223,816.199 765.919,818.777 770,820.675C790.747,830.323 816.812,823.035 837,815.423C869.23,803.268 899.197,786.256 929,769.149L955,753.795C960.214,750.647 965.156,746.849 971,744.999L971,745.011ZM1523,626.529C1535.8,623.629 1544.36,635.605 1534.8,645.829C1526.85,654.313 1515.62,660.919 1506,667.333L1453,700.811C1401.76,732.201 1349.68,763.269 1295,788.309C1269.77,799.863 1241.3,813.292 1213,813.985C1204.13,814.202 1195.6,814.007 1187,811.572C1181.92,810.131 1177.32,808.011 1173,804.957C1141.45,782.67 1155.32,739.5 1168.78,711C1171.35,705.55 1174.17,700.233 1177.15,695C1181.17,687.958 1185.13,680.884 1189.43,674C1197.4,661.205 1206.25,649.095 1218,639.465C1222.95,635.403 1229.24,630.801 1236,631.145C1244.33,631.57 1250.05,640.34 1246.43,648C1243.48,654.258 1236.82,657.943 1233.28,664C1219.3,687.973 1205.72,713.594 1197,740C1193.73,749.889 1185.7,770.71 1200,775.467C1209.87,778.747 1222.27,775.655 1232,772.989C1254.44,766.842 1276.22,757.634 1297,747.247C1345.8,722.861 1393.82,696.958 1441,669.576C1459.53,658.819 1477.82,647.343 1497,637.753C1505.17,633.669 1514.03,628.556 1523,626.529ZM1687,716C1689.03,723.193 1690.37,730.792 1694.8,737C1706.44,753.33 1726.06,758 1745,758C1777.6,758 1809.2,749.932 1840,739.667C1852.75,735.417 1865.4,730.997 1878,726.319C1884.72,723.824 1891.94,720.456 1894.2,712.999C1896.88,704.129 1889.73,696.079 1881,695.399C1875.75,694.985 1869.93,697.079 1865,698.679C1834.42,708.607 1802.96,718.139 1771,722.291C1758.53,723.911 1741.7,726.897 1730.02,720.567C1718.42,714.287 1727.46,700.53 1732.72,693.009C1738.55,684.676 1745.36,677.016 1753,670.295C1760.3,663.867 1769.56,657.815 1774.18,649.009C1779.38,639.081 1776.98,626.123 1766,621.376C1755.43,616.806 1745.68,623.106 1738,629.854C1728.1,638.546 1718.74,647.612 1708,655.299C1670.96,681.811 1631.45,706.339 1590,725.319C1579.28,730.226 1568.44,735.105 1557,738.126C1551.96,739.458 1547.2,741.021 1542,740.01C1552.48,724.665 1566.56,711.96 1581,700.41C1601.28,684.191 1623.04,669.921 1646,657.791C1658.4,651.251 1677.64,640.631 1692,644.011C1690.7,650.104 1694.64,657.756 1701.96,653.981C1707.94,650.898 1714.74,641.318 1716.78,635.011C1721.33,620.907 1709.88,607.879 1696,606.195C1673.4,603.455 1650.93,613.873 1631,623.039C1597.65,638.381 1565.93,661.161 1539,685.925C1525.3,698.525 1510.56,713.405 1503.45,731.011C1494.19,753.957 1506.97,776.336 1532,778.841C1559.16,781.559 1588.23,769.116 1612,757.259C1626.85,749.851 1641.66,742.376 1656,733.999C1666.15,728.069 1676.22,720.662 1687,716.011L1687,716ZM1005.32,241.419C1010.42,241.454 1015.31,242.311 1016.88,245.281C1019.74,250.716 1011.21,261.807 1008.28,266.001C995.773,283.907 980.171,300.199 964.001,314.831C897.046,375.414 786.668,437.385 740.001,468.151C722.151,479.919 695.668,492.928 684.001,499.425C679.347,502.017 673.463,505.508 670.001,507.135C668.2,507.981 666.25,509.29 664.307,509.314L664.199,509.314C663.875,509.311 663.552,509.27 663.229,509.185C659.865,508.297 660.043,503.706 660.005,501.001C659.89,492.806 660.878,485.734 663.695,478.001C674.048,449.581 696.965,424.037 718,403.001C765.45,355.545 818.98,315.614 878,283.691C913.644,264.412 952.567,247.929 993,242.425L993.001,242.427L994.107,242.277C996.738,241.926 1000.83,241.429 1004.86,241.418L1005.32,241.419Z" style="fill:rgb(13,9,9);"/>
</svg>
