<?xml version="1.0" encoding="UTF-8" standalone="no"?>
<!DOCTYPE svg PUBLIC "-//W3C//DTD SVG 1.1//EN" "http://www.w3.org/Graphics/SVG/1.1/DTD/svg11.dtd">
<svg width="100%" height="100%" viewBox="0 0 3840 2160" version="1.1" xmlns="http://www.w3.org/2000/svg" xmlns:xlink="http://www.w3.org/1999/xlink" xml:space="preserve" xmlns:serif="http://www.serif.com/" style="fill-rule:evenodd;clip-rule:evenodd;stroke-linejoin:round;stroke-miterlimit:2;">
    <g>
        <path d="M-49.969,2233.09C-49.969,2233.09 -86.712,1390.7 -30.83,1317.11C25.053,1243.52 154.981,1239.48 235.577,1237.12C316.173,1234.76 455.219,1165.1 536.551,1136.91C617.883,1108.73 704.437,1101.68 808.14,1105.11C911.842,1108.53 723.129,1008.76 824.424,1042.61C925.719,1076.46 1025.4,1083.13 1088.17,1080C1150.93,1076.87 1643.03,1589.9 1643.03,1589.9L572.881,2228.07L-49.969,2233.09Z" style="fill:rgb(114,195,242);fill-opacity:0.15;"/>
        <g transform="matrix(1.44408,0.102296,-0.0833988,1.17731,-636.899,-457.83)">
            <path d="M1197.06,1953.6C1270.33,1757.59 1264.57,1701.29 1283.43,1643.16C1302.29,1585.02 1348.62,1539.37 1342.92,1510.75C1337.21,1482.13 1313.44,1432.5 1281.76,1405.37C1267.01,1392.73 1242.66,1342.25 1224.66,1328.94C1204.01,1313.65 1197.91,1255.58 1197.91,1255.58L1262.54,1251.76L1598.28,1377.86L1643.03,1718.47L1382.9,1998.35C1382.9,1998.35 1123.79,2149.6 1197.06,1953.6Z" style="fill:rgb(228,216,149);"/>
        </g>
        <g transform="matrix(0.787593,0.916034,0.529241,-0.367572,-604.954,1330.43)">
            <path d="M1139.15,1244.89C1139.15,1244.89 1033.33,1398.31 904.686,1718.73C776.047,2039.15 618.232,2161.52 899.18,1986.52C1180.13,1811.53 1139.15,1244.89 1139.15,1244.89Z" style="fill:rgb(28,127,194);fill-opacity:0.47;"/>
        </g>
        <g transform="matrix(0.787593,0.916034,0.529241,-0.367572,-555.707,1316.51)">
            <path d="M1139.15,1244.89C1139.15,1244.89 1101.14,916.596 972.5,1237.02C843.861,1557.43 646.406,2054.77 899.18,1986.52C1196.85,1906.15 1139.15,1244.89 1139.15,1244.89Z" style="fill:rgb(28,127,194);fill-opacity:0.47;"/>
        </g>
        <g>
            <g transform="matrix(0.308724,-0.0595302,0.0418386,0.137555,694.969,1637.07)">
                <path d="M1139.15,1244.89C1139.15,1244.89 992.324,1561.75 863.685,1882.17C735.046,2202.59 509.654,2114.34 790.603,1939.35C1071.55,1764.35 1139.15,1244.89 1139.15,1244.89Z" style="fill:white;fill-opacity:0.24;"/>
            </g>
            <g transform="matrix(0.610094,0,0,0.524701,476.308,806.102)">
                <path d="M1139.15,1244.89C1139.15,1244.89 1034.58,1478.32 905.941,1798.74C777.302,2119.16 509.654,2114.34 790.603,1939.35C1071.55,1764.35 1139.15,1244.89 1139.15,1244.89Z" style="fill:white;fill-opacity:0.24;"/>
            </g>
            <g transform="matrix(0.402918,0.468627,0.525922,-0.365267,-230.527,1727.92)">
                <path d="M1139.15,1244.89C1139.15,1244.89 1031.66,1360.94 903.02,1681.36C774.381,2001.78 509.654,2114.34 790.603,1939.35C1071.55,1764.35 1139.15,1244.89 1139.15,1244.89Z" style="fill:white;fill-opacity:0.24;"/>
            </g>
            <g transform="matrix(0.277284,-0.156744,0.0812996,0.116177,746.944,1651.03)">
                <path d="M1139.15,1244.89C1139.15,1244.89 1117.57,1258.59 988.935,1579.01C860.296,1899.43 509.654,2114.34 790.603,1939.35C1071.55,1764.35 1139.15,1244.89 1139.15,1244.89Z" style="fill:white;fill-opacity:0.24;"/>
            </g>
            <g transform="matrix(0.0593895,0.470266,0.114075,0.0651353,931.175,1161.45)">
                <path d="M1139.15,1244.89C1139.15,1244.89 992.324,1561.75 863.685,1882.17C735.046,2202.59 509.654,2114.34 790.603,1939.35C1071.55,1764.35 1139.15,1244.89 1139.15,1244.89Z" style="fill:white;fill-opacity:0.24;"/>
            </g>
            <g transform="matrix(0.371382,0.324486,0.107927,-0.0397343,701.168,1294.57)">
                <path d="M1139.15,1244.89C1139.15,1244.89 1117.57,1258.59 988.935,1579.01C860.296,1899.43 509.654,2114.34 790.603,1939.35C1071.55,1764.35 1139.15,1244.89 1139.15,1244.89Z" style="fill:white;fill-opacity:0.24;"/>
            </g>
        </g>
    </g>
</svg>
