<?xml version="1.0" encoding="UTF-8" standalone="no"?>
<!DOCTYPE svg PUBLIC "-//W3C//DTD SVG 1.1//EN" "http://www.w3.org/Graphics/SVG/1.1/DTD/svg11.dtd">
<svg width="100%" height="100%" viewBox="0 0 3840 2160" version="1.1" xmlns="http://www.w3.org/2000/svg" xmlns:xlink="http://www.w3.org/1999/xlink" xml:space="preserve" xmlns:serif="http://www.serif.com/" style="fill-rule:evenodd;clip-rule:evenodd;stroke-linecap:round;stroke-linejoin:round;stroke-miterlimit:1.5;">
    <g>
        <path d="M507.417,2189.33C507.417,2189.33 579.412,2094.46 602.515,2087.08C625.619,2079.7 661.798,2067.38 673.12,2057.55C684.442,2047.71 714.233,2023.23 743.903,2003.39C773.573,1983.56 853.671,1945.99 926.558,1923.16C999.445,1900.34 1179.36,1823.72 1232.6,1793.99C1285.84,1764.26 1352.56,1694.12 1384.45,1668.34C1416.35,1642.56 1456.73,1633.58 1473.23,1615.79C1489.73,1598.01 1533.76,1558.68 1568.27,1543.87C1602.78,1529.06 1614.51,1498.76 1648.52,1473.88C1682.54,1448.99 1741.08,1416.52 1808.11,1353.35C1875.13,1290.18 1891.95,1266.86 1920,1249.94C1948.05,1233.03 1951.7,1240.56 1966.54,1226.08C1981.38,1211.6 1994.74,1204.51 2021.88,1198.03C2049.01,1191.56 2090,1174.74 2117.72,1173.15C2145.45,1171.57 2608.83,1192.01 2655.1,1202.06C2701.36,1212.1 2846.46,1243.45 2945.61,1258.35C3044.76,1273.24 3061.15,1269.81 3079.54,1275.89C3097.93,1281.97 3124.63,1294.2 3160.93,1293.77C3197.22,1293.34 3217.37,1305.27 3245.87,1311.14C3274.37,1317.02 3286.14,1339.44 3317.33,1342.39C3348.53,1345.34 3384.67,1357.17 3416.98,1368.6C3449.29,1380.04 3513.29,1392.88 3520.01,1397.6C3526.73,1402.32 3553.92,1406.83 3571.93,1414.43C3589.94,1422.03 3600.06,1425.58 3629.69,1433.77C3659.32,1441.96 3689.66,1463.75 3710.52,1466.73C3731.38,1469.72 3749.16,1481.4 3769.67,1482.85C3790.18,1484.3 3812.72,1498.34 3840,1498.34C3867.28,1498.34 3949.16,2324.04 3949.16,2324.04L390.687,2306.87L507.417,2189.33Z" style="fill:rgb(194,163,102);"/>
        <path d="M3854.62,1679.06C3854.62,1679.06 3631.72,1614 3515.86,1584.9C3400.01,1555.81 3052.74,1460.72 2983.29,1447.94C2913.84,1435.17 2671.93,1375.62 2607.17,1370.64C2542.41,1365.66 2217.49,1339.37 2152.25,1330.38C2087.01,1321.38 1986.02,1319.66 1989.41,1293.55C1992.81,1267.43 2021.26,1225.73 2054.71,1212.51C2088.16,1199.28 2160.18,1174.13 2227.53,1173.07C2294.89,1172 2519.04,1182.55 2561.29,1190.77C2603.54,1198.98 2649.7,1208.21 2656.03,1214.28C2662.36,1220.34 2642.55,1234.83 2763.85,1252.45C2885.15,1270.08 2998.98,1282.71 3035.94,1312.04C3072.89,1341.36 3112.64,1358.8 3156.62,1376.34C3200.6,1393.88 3205.95,1399.61 3205.95,1399.61C3205.95,1399.61 3164.55,1432.96 3226.06,1447.94C3287.56,1462.93 3345.48,1476.08 3562.43,1530.93C3779.38,1585.77 3867.72,1618.17 3867.72,1618.17L3854.62,1679.06Z" style="fill:rgb(249,251,202);"/>
        <path d="M2627.33,1482.32L2969.21,1471.4" style="fill:none;"/>
        <path d="M2980.99,1451.66L2982.01,1432.59C2982.01,1432.59 2969.62,1425.06 2946.83,1422.33C2924.04,1419.61 2903.96,1414.24 2888.22,1410.26C2872.49,1406.27 2851.11,1401.43 2841.82,1399.1C2832.54,1396.78 2821.43,1393.77 2802.3,1392.16C2783.18,1390.54 2779.02,1382.7 2765.39,1380.5C2751.76,1378.31 2731.68,1377.1 2718.55,1373.08C2705.42,1369.06 2692.53,1364.29 2677.89,1362.3C2663.26,1360.31 2634.94,1353.87 2619.01,1352.31C2603.07,1350.75 2547.11,1350.24 2529.38,1346.85C2511.64,1343.46 2474.57,1338.87 2454.44,1337.79C2434.32,1336.71 2427.51,1330.38 2409.59,1330.34C2391.66,1330.31 2342.79,1327.32 2311.29,1325.05C2279.79,1322.77 2215.39,1319.05 2155.06,1312.3C2094.73,1305.55 2070.44,1301.99 2063.37,1299.89C2056.31,1297.8 2023.6,1291.92 2013.66,1286.11C2003.72,1280.3 2002.57,1265.5 2025.96,1248.07C2049.36,1230.65 2019.8,1239.05 2063.24,1220.52C2106.68,1201.99 2111.55,1196.89 2165.01,1192.22C2218.48,1187.54 2249.36,1183.99 2271.51,1184.27C2293.66,1184.55 2388.46,1178.41 2463.22,1185.86C2537.97,1193.3 2566.7,1194.15 2601.83,1201.66C2636.97,1209.17 2651.57,1215.23 2651.46,1210.93C2651.36,1206.62 2654.95,1183.41 2648.08,1183.41C2641.21,1183.41 2627.53,1181.09 2609.88,1178.59C2592.23,1176.09 2582.5,1174.53 2569.24,1173.07C2555.99,1171.6 2530.67,1166.44 2519.99,1166.42C2509.32,1166.41 2465.76,1164.17 2434.2,1163.83C2402.64,1163.49 2376.12,1162.6 2364.45,1162.94C2352.79,1163.29 2319.6,1162.3 2299.58,1162.81C2279.57,1163.31 2202.87,1164.25 2182.13,1168.02C2161.39,1171.78 2134.16,1168 2101.5,1177.63C2068.84,1187.27 2051.77,1197.36 2036.63,1203.57C2021.49,1209.79 2009.93,1217.68 1997.01,1240.58C1984.09,1263.47 1979.41,1300.67 2004.75,1309.21C2030.1,1317.76 2074.64,1330.91 2144.76,1336.38C2214.87,1341.84 2195.62,1346.6 2257.31,1350.24C2319,1353.87 2376.86,1359.58 2411.52,1361.98C2446.18,1364.38 2495.31,1373.08 2533.28,1375.32C2571.26,1377.56 2602.62,1382.6 2650.46,1389.05C2698.3,1395.5 2749.31,1408.47 2780.03,1414.8C2810.75,1421.14 2858.66,1434.52 2895.28,1439.78C2931.9,1445.04 2980.99,1451.66 2980.99,1451.66Z" style="fill:rgb(120,121,97);"/>
        <path d="M2931.55,1343.35C2944.47,1344.32 2983.71,1344.54 3007.73,1344.8C3031.75,1345.07 3066.61,1334.47 3076.99,1323.31C3087.38,1312.15 3095.62,1309.26 3081.88,1303.03C3068.14,1296.79 3051.68,1282.39 3010.53,1281.21C2969.38,1280.03 2956.05,1282.47 2959.71,1278.26C2963.38,1274.05 2955.55,1266.9 2948.71,1268.41C2941.87,1269.91 2874.62,1278.81 2874.62,1278.81C2874.62,1278.81 2918.62,1342.37 2931.55,1343.35Z" style="fill:rgb(57,57,57);fill-opacity:0.5;"/>
        <path d="M2691.4,1286.89L2691.83,1299.91L2696.12,1302.06L2729.26,1302.44C2729.26,1302.44 2730.37,1304.02 2722.53,1310.87C2714.68,1317.72 2714.26,1318.61 2714.26,1318.61L2714.06,1327.11L2722.22,1331.49L2763.8,1328C2763.8,1328 2769.58,1328.47 2784.62,1331.67C2799.67,1334.87 2811.17,1336.29 2811.17,1336.29L2809.27,1350.85L2823.66,1352.77L2827.46,1339.5C2827.46,1339.5 2825.3,1340.22 2853.11,1339.94C2880.91,1339.65 2884.73,1339.33 2884.73,1339.33L2918.01,1356.58L2935.18,1356.46L2933.14,1340.58L2923.6,1328.24L2976.61,1332.66L2976.93,1315.22C2976.93,1315.22 2957.75,1317.75 2944.22,1274.81C2930.69,1231.87 2934.32,1233.52 2933.33,1215.08C2932.33,1196.64 2932.07,1159.1 2936.39,1150.49C2940.71,1141.89 2976.03,1102.06 2980.52,1099.63C2985,1097.19 2987.32,1095.59 2987.32,1095.59L2986.9,1090.45L2978.1,1080L2956.74,1049.99C2956.74,1049.99 2891.92,1055.43 2861.3,1053.42C2831.48,1051.47 2773.01,1037.96 2773.01,1037.96L2735.47,1044.86L2698.85,1059.22L2735.53,1100.93L2747.25,1106.32C2747.25,1106.32 2749.24,1143 2744.6,1188.95C2739.95,1234.9 2733.64,1255.56 2718.04,1269.1C2702.44,1282.64 2691.4,1286.89 2691.4,1286.89Z" style="fill:rgb(206,233,231);"/>
        <clipPath id="_clip1">
            <path d="M2691.4,1286.89L2691.83,1299.91L2696.12,1302.06L2729.26,1302.44C2729.26,1302.44 2730.37,1304.02 2722.53,1310.87C2714.68,1317.72 2714.26,1318.61 2714.26,1318.61L2714.06,1327.11L2722.22,1331.49L2763.8,1328C2763.8,1328 2769.58,1328.47 2784.62,1331.67C2799.67,1334.87 2811.17,1336.29 2811.17,1336.29L2809.27,1350.85L2823.66,1352.77L2827.46,1339.5C2827.46,1339.5 2825.3,1340.22 2853.11,1339.94C2880.91,1339.65 2884.73,1339.33 2884.73,1339.33L2918.01,1356.58L2935.18,1356.46L2933.14,1340.58L2923.6,1328.24L2976.61,1332.66L2976.93,1315.22C2976.93,1315.22 2957.75,1317.75 2944.22,1274.81C2930.69,1231.87 2934.32,1233.52 2933.33,1215.08C2932.33,1196.64 2932.07,1159.1 2936.39,1150.49C2940.71,1141.89 2976.03,1102.06 2980.52,1099.63C2985,1097.19 2987.32,1095.59 2987.32,1095.59L2986.9,1090.45L2978.1,1080L2956.74,1049.99C2956.74,1049.99 2891.92,1055.43 2861.3,1053.42C2831.48,1051.47 2773.01,1037.96 2773.01,1037.96L2735.47,1044.86L2698.85,1059.22L2735.53,1100.93L2747.25,1106.32C2747.25,1106.32 2749.24,1143 2744.6,1188.95C2739.95,1234.9 2733.64,1255.56 2718.04,1269.1C2702.44,1282.64 2691.4,1286.89 2691.4,1286.89Z"/>
        </clipPath>
        <g clip-path="url(#_clip1)">
            <path d="M2747.38,1154.75L2753.09,1156.68C2753.09,1156.68 2752.87,1164.83 2756.61,1168.54C2760.36,1172.24 2784.85,1184.33 2794.61,1186.95C2804.37,1189.58 2837.61,1192.67 2837.61,1192.67L2842.25,1218.46C2842.25,1218.46 2869.76,1269.42 2880.07,1278.29C2890.38,1287.15 2911.5,1282.78 2911.7,1287.65C2911.9,1292.52 2915.86,1308.23 2919.84,1317.69C2923.82,1327.14 2928.99,1334.97 2928.99,1334.97L2978.84,1335.38L2978.84,1312.47L2993.41,1069.41L2935.24,1021.09L2787.97,1029.45L2737.14,1053.86C2737.14,1053.86 2731.43,1063.79 2773.09,1069.41C2814.74,1075.04 2893.62,1080.34 2907.29,1080.1C2920.97,1079.86 2966.46,1076.64 2966.46,1076.64C2966.46,1076.64 2987.14,1092.36 2961.88,1100.56C2936.61,1108.76 2893.14,1120.19 2823.2,1114.22C2753.27,1108.26 2734.43,1100.87 2734.43,1100.87L2741.85,1152.44L2747.38,1154.75Z" style="fill:rgb(65,65,65);fill-opacity:0.47;"/>
        </g>
        <path d="M2696.77,1299.55L2696.3,1289.29C2696.3,1289.29 2706.47,1291.82 2720,1276.57C2733.52,1261.33 2743.22,1238 2743.22,1238C2743.22,1238 2748.86,1215.13 2750.38,1201.79C2751.89,1188.44 2754.52,1107.8 2754.52,1107.8L2759.17,1107.5L2764.89,1245.56C2764.89,1245.56 2766.34,1250.07 2754.44,1268.2C2742.55,1286.34 2729.06,1302.41 2729.06,1302.41L2696.77,1299.55ZM2723.04,1330.87L2723.2,1320.99C2723.2,1320.99 2746.1,1306.7 2756.91,1281.67C2767.71,1256.64 2768.37,1253.33 2768.37,1253.33L2770.86,1114.51L2774.8,1114.22L2770.94,1324.12L2723.04,1330.87ZM2823.21,1350.42C2823.4,1348.42 2823.44,1334.83 2823.74,1330.87C2824.04,1326.9 2832.56,1262.92 2834.85,1229.82C2837.14,1196.72 2839.36,1130.3 2839.36,1130.3L2842,1128.91C2842,1128.91 2843.01,1204.94 2843.53,1222.54C2844.05,1240.14 2861.3,1336.77 2861.3,1336.77C2861.3,1336.77 2844.85,1344.56 2839.36,1348.55C2833.87,1352.53 2823.02,1352.41 2823.21,1350.42Z" style="fill:rgb(47,47,47);fill-opacity:0.49;"/>
        <g transform="matrix(1,0,0,1,-8.3443,16.221)">
            <g transform="matrix(1,0,0,1,-4.52823,-0.228492)">
                <path d="M2956.74,944.017L2956.74,1047.03L2854.62,1053.42L2765.85,1033.08L2765.85,944.017L2828.69,961.965L2912.63,961.965L2956.74,944.017Z" style="fill:rgb(27,90,124);fill-opacity:0.5;"/>
            </g>
            <g transform="matrix(1,0,0,1,-4.52823,-0.228492)">
                <path d="M2765.85,940.214C2763.7,938.264 2765.85,931.506 2765.85,931.506C2765.85,931.506 2768.49,929.672 2771.14,929.672C2773.78,929.672 2774.15,915.522 2801.84,892.822C2829.53,870.122 2839.36,867.841 2839.36,867.841C2839.36,867.841 2845.65,864.084 2847.51,860.856C2849.38,857.628 2853.99,855.496 2849.09,852.021C2844.18,848.546 2825.42,838.961 2830.62,832.81C2835.81,826.659 2837.99,826.452 2835.96,823.043C2833.93,819.634 2850.65,811.3 2853.03,817.655C2855.4,824.01 2855.86,821.804 2865.01,823.654C2874.15,825.505 2871.83,820.609 2875.53,825.96C2879.23,831.312 2884.73,822.091 2883.45,838.111C2882.18,854.131 2881.2,854.93 2878.95,856.149C2876.71,857.369 2881.45,860.977 2886.13,865.076C2890.8,869.175 2894.45,876.124 2898.3,876.297C2902.16,876.47 2917.95,882.997 2928.53,902.002C2939.1,921.007 2940.1,940.769 2943.95,940.349C2947.82,939.929 2954.68,940.086 2954.64,943.969C2954.59,947.853 2949.18,959.254 2896.11,961.313C2843.04,963.373 2807.51,960.637 2788.33,951.9C2769.15,943.163 2769.6,943.613 2765.85,940.214Z" style="fill:rgb(0,32,74);"/>
            </g>
            <g transform="matrix(1,0,0,1,-4.52823,-0.228492)">
                <path d="M2762.35,1027.48L2763.39,943.926C2763.41,942.268 2764.59,940.852 2766.22,940.534C2767.84,940.216 2769.47,941.085 2770.11,942.613C2770.11,942.613 2788.94,987.427 2788.94,987.427L2811.29,954.518C2812.03,953.426 2813.32,952.844 2814.63,953.012C2815.94,953.18 2817.04,954.069 2817.48,955.312L2831.4,994.498L2846.92,960.647C2847.52,959.328 2848.88,958.519 2850.32,958.612C2851.77,958.705 2853.01,959.681 2853.44,961.066L2863.78,994.328L2876.36,962.58C2876.88,961.251 2878.17,960.375 2879.6,960.369C2881.03,960.363 2882.32,961.227 2882.85,962.552L2896.05,995.056L2913.51,959.463C2914.14,958.168 2915.51,957.395 2916.95,957.516C2918.39,957.638 2919.6,958.629 2920.01,960.012L2927.61,985.753L2932.74,955.697C2933.03,954.008 2934.5,952.776 2936.21,952.786C2937.93,952.797 2939.38,954.046 2939.65,955.739L2943.19,978.128L2949.5,950.02C2949.89,948.298 2951.49,947.133 2953.25,947.303C2955.01,947.472 2956.36,948.923 2956.41,950.688L2957.93,1004.34L2960.24,1053.26C2960.33,1055.03 2959.06,1056.59 2957.31,1056.88C2955.55,1057.16 2953.86,1056.09 2953.38,1054.37L2943.36,1018.98L2936.47,1046.82C2936.07,1048.46 2934.55,1049.58 2932.86,1049.47C2931.17,1049.36 2929.8,1048.06 2929.6,1046.38L2926.22,1017.58L2906.5,1049.44C2905.78,1050.61 2904.42,1051.25 2903.05,1051.06C2901.68,1050.88 2900.55,1049.9 2900.16,1048.57L2891.84,1019.79L2879.57,1054.2C2879.07,1055.6 2877.74,1056.53 2876.26,1056.53C2874.77,1056.52 2873.45,1055.57 2872.97,1054.16C2872.97,1054.16 2861.08,1019.6 2861.08,1019.6L2847.68,1050.89C2847.11,1052.22 2845.78,1053.07 2844.33,1053.01C2842.88,1052.96 2841.62,1052.02 2841.15,1050.64L2829.56,1016.73L2816.01,1048.01C2815.47,1049.26 2814.24,1050.08 2812.87,1050.11C2811.51,1050.14 2810.25,1049.37 2809.65,1048.14L2789.6,1006.88L2772.79,1035.24C2772.18,1036.28 2771.07,1036.92 2769.87,1036.95C2768.66,1036.98 2767.53,1036.39 2766.86,1035.39L2762.93,1029.45C2762.54,1028.87 2762.34,1028.18 2762.35,1027.48ZM2765.85,1027.52L2769.78,1033.45L2789.91,999.505L2812.8,1046.61L2829.94,1007.03L2844.46,1049.51L2861.43,1009.87L2876.28,1053.03L2892.18,1008.4L2903.53,1047.6L2928.53,1007.2L2933.08,1045.98L2943.13,1005.32L2956.74,1053.42L2954.43,1004.47L2952.91,950.787L2942.59,996.763L2936.19,956.286L2928.53,1001.2L2916.65,961.004L2895.75,1003.62L2879.61,963.869L2863.38,1004.84L2850.1,962.105L2830.99,1003.8L2814.18,956.484L2788.22,994.73L2766.89,943.969L2765.85,1027.52Z" style="fill:rgb(27,44,67);"/>
            </g>
            <g transform="matrix(1,0,0,1,-4.52823,-0.228492)">
                <path d="M2765.85,988.34C2765.85,988.34 2768.85,997.549 2839.36,1005.01C2909.87,1012.48 2911.87,1007.88 2928.53,1005.85C2945.64,1003.77 2956.74,993.114 2956.74,993.114" style="fill:none;stroke:rgb(27,44,67);stroke-width:3.5px;"/>
            </g>
        </g>
        <g transform="matrix(1.06726,0,-0.245322,1,500.766,30.4923)">
            <path d="M807.207,2132.17C791.693,2132.17 760.666,2105.62 760.666,2092.34C760.666,2079.07 791.693,2052.52 807.207,2052.52C822.72,2052.52 853.747,2079.07 853.747,2092.34C853.747,2105.62 822.72,2132.17 807.207,2132.17ZM807.207,2132.17C822.72,2132.17 853.747,2156.8 853.747,2169.12C853.747,2181.44 822.72,2206.07 807.207,2206.07C791.693,2206.07 760.666,2181.44 760.666,2169.12C760.666,2156.8 791.693,2132.17 807.207,2132.17ZM919.818,2181.91C921.702,2174.97 912.189,2167.87 911.627,2161.96C911.115,2156.57 919.092,2151.17 916.448,2146.45C909.145,2133.41 865.302,2104.94 867.813,2083.74C870.324,2062.53 910.28,2019.2 931.513,2019.2C952.747,2019.2 986.202,2067.29 995.213,2083.74C1000.89,2094.1 986.881,2112.17 985.583,2117.85C985.446,2118.45 986.821,2117.72 987.423,2117.84C995.584,2119.43 1023.52,2135.1 1034.55,2127.41C1045.57,2119.72 1049.82,2082.21 1053.58,2071.71C1054.49,2069.16 1056.8,2065.62 1057.13,2064.41C1057.26,2063.9 1055.89,2064.87 1055.56,2064.47C1050.71,2058.44 1028.04,2040.34 1028.04,2028.27C1028.04,2016.21 1049.69,1997.87 1055.56,1992.08C1057.42,1990.24 1061.99,1993.65 1063.27,1993.52C1064.01,1993.45 1062.8,1991.91 1063.22,1991.3C1067.75,1984.76 1081.4,1954.97 1090.46,1954.32C1099.51,1953.67 1103.43,1985.44 1117.55,1987.39C1134.94,1989.8 1177.86,1967.79 1194.81,1968.77C1206.32,1969.43 1210.51,1985.72 1219.23,1993.26C1228.93,2001.65 1247.92,2013.19 1253.01,2019.08C1255.2,2021.63 1249,2027.11 1249.75,2028.64C1250.5,2030.17 1255.2,2027.07 1257.49,2028.27C1267.11,2033.34 1306.39,2048.82 1307.52,2059.02C1308.64,2069.22 1267.26,2075.59 1264.25,2089.49C1261.25,2103.39 1285.36,2132.11 1289.46,2142.42C1290.57,2145.2 1285.91,2151.35 1288.9,2151.37C1293.45,2151.4 1313.67,2148.84 1316.78,2142.61C1319.88,2136.39 1303.42,2123.15 1307.52,2114C1313.08,2101.56 1342.73,2075.66 1350.15,2068C1350.58,2067.55 1352.02,2068.66 1352.02,2068.04C1352.02,2065.1 1349.94,2056.28 1350.15,2050.35C1350.38,2043.53 1357.15,2030.79 1353.44,2027.11C1349.73,2023.43 1336.41,2028.73 1327.9,2028.27C1317.24,2027.7 1289.46,2025.21 1289.46,2023.68C1289.46,2022.15 1316.86,2019.61 1327.9,2019.08C1337.18,2018.64 1347.3,2024.41 1355.72,2020.51C1367.4,2015.11 1382.94,1981.73 1397.95,1986.7C1412.95,1991.68 1439.62,2032.96 1445.75,2050.35C1450.42,2063.61 1430.2,2077.73 1434.68,2091.05C1440.49,2108.31 1469.62,2143.74 1480.55,2153.88C1485.39,2158.37 1497.97,2157.41 1500.26,2151.86C1502.56,2146.31 1488.56,2129.51 1494.32,2120.6C1506.54,2101.68 1551.9,2048.87 1573.6,2038.38C1589.94,2030.47 1606.99,2062.22 1624.54,2057.61C1645.92,2052 1688.08,2013.5 1701.85,2004.71C1703.34,2003.76 1707.12,2006.68 1707.17,2004.9C1707.26,2001.4 1704.98,1986.93 1702.41,1983.72C1700.16,1980.89 1694.02,1988.41 1691.74,1985.61C1682.13,1973.75 1650.86,1932.27 1644.71,1912.55C1640.1,1897.8 1654.83,1880.88 1654.83,1867.29C1654.83,1854.74 1640.15,1842.72 1644.71,1831.02C1650.86,1815.21 1676.07,1772.47 1691.74,1772.47C1707.42,1772.47 1732.63,1815.21 1738.78,1831.02C1743.34,1842.72 1728.77,1855.76 1728.66,1867.29C1728.55,1878.71 1730.76,1896.51 1738.11,1900.22C1745.47,1903.93 1765.4,1891.21 1772.77,1889.57C1775.9,1888.87 1780.83,1891.24 1782.37,1890.32C1783.9,1889.4 1781.32,1886.03 1781.98,1884.05C1784.25,1877.29 1798.19,1861.91 1795.95,1849.79C1793.41,1836.12 1765.25,1818.17 1766.8,1802.01C1768.35,1785.83 1792.43,1752.77 1805.25,1752.77C1818.07,1752.77 1839.72,1787.37 1843.7,1802.01C1847.31,1815.27 1826.57,1827.08 1829.14,1840.58C1831.75,1854.25 1858.91,1869.69 1859.34,1884.05C1859.78,1898.4 1834.37,1911.88 1831.76,1926.73C1829.15,1941.57 1849.77,1958.35 1843.7,1973.12C1834.83,1994.73 1787.04,2032.6 1778.53,2056.4C1771.66,2075.59 1795.37,2095.7 1792.62,2115.89C1789.31,2140.26 1743.76,2175.36 1758.67,2202.57C1774.54,2231.56 1894.12,2260.36 1887.88,2289.82C1881.64,2319.28 1772.22,2371.14 1721.24,2379.33C1673.52,2387 1629.99,2333.43 1581.98,2338.97C1533.73,2344.54 1483.01,2417.04 1431.73,2412.75C1380.44,2408.46 1324.98,2325.95 1274.28,2313.23C1226.24,2301.18 1175.93,2346.87 1127.51,2336.43C1063.95,2322.72 927.504,2256.73 892.888,2230.98C877.919,2219.84 916.695,2193.41 919.818,2181.91ZM1651.6,2208.48C1659.29,2198.97 1640.14,2181.33 1627.95,2180.44C1614.95,2179.5 1583.39,2199.11 1573.6,2202.82C1572.24,2203.33 1570.16,2201.57 1569.22,2202.69C1564.82,2207.92 1547.27,2225.65 1547.18,2234.16C1547.09,2242.68 1559.25,2256.1 1568.67,2253.78C1586.07,2249.5 1641.72,2220.7 1651.6,2208.48ZM1384.38,2205.18C1386.95,2201.38 1378.22,2188.52 1373.89,2189.67C1369.55,2190.81 1360.92,2208.26 1358.36,2212.05C1358.28,2212.16 1358.38,2212.46 1358.51,2212.43C1362.85,2211.28 1381.82,2208.97 1384.38,2205.18ZM1363.27,2157.78C1363.3,2158.56 1365.98,2161.45 1366.49,2161.25C1367,2161.05 1366.88,2157.14 1366.35,2156.56C1365.81,2155.98 1363.25,2156.99 1363.27,2157.78ZM2464.76,2311.54C2435.8,2312.78 2406.45,2346.27 2378.03,2336.43C2341.62,2323.84 2253.04,2268.67 2246.34,2235.98C2239.63,2203.3 2325.28,2166.81 2337.79,2140.31C2347.1,2120.61 2320.98,2098.81 2321.41,2077.01C2321.83,2055.2 2340.36,2028.16 2340.36,2009.45C2340.36,1993.28 2316.8,1980.28 2321.41,1964.77C2327.02,1945.84 2368.44,1921.16 2374.04,1895.89C2379.65,1870.62 2346.55,1840.16 2355.02,1813.15C2366.26,1777.33 2425.99,1702.89 2441.47,1680.9C2442.71,1679.14 2447.93,1683.43 2447.93,1681.27C2447.93,1674.64 2437.39,1654.04 2441.47,1641.1C2447.6,1621.68 2470.29,1564.73 2484.7,1564.73C2499.1,1564.73 2525.64,1616.29 2527.92,1641.1C2530.19,1665.91 2498.52,1688.38 2498.34,1713.58C2498.16,1738.78 2521.69,1779.2 2526.85,1792.29C2527.14,1793.04 2528.58,1791.72 2529.27,1792.13C2533.53,1794.69 2547.66,1815.65 2552.35,1807.66C2567.24,1782.31 2608.37,1671.38 2618.58,1640.05C2620.74,1633.41 2610.79,1626.09 2613.59,1619.69C2617.77,1610.14 2633.87,1584.67 2643.65,1582.78C2653.43,1580.89 2666.56,1604.13 2672.26,1608.34C2673.76,1609.45 2676.8,1606.53 2677.83,1608.08C2699.56,1640.63 2770.4,1780.56 2802.62,1803.63C2826.8,1820.94 2852.12,1752.24 2871.14,1746.48C2887.36,1741.56 2903.18,1779.25 2916.7,1769.03C2932.08,1757.41 2946.76,1663.97 2963.42,1676.74C2980.08,1689.5 3004.01,1811.65 3016.66,1845.62C3021.5,1858.62 3039.88,1868.51 3039.31,1880.54C3038.75,1892.57 3018.88,1904.05 3013.28,1917.79C3007.69,1931.53 3001.62,1958.5 3005.74,1962.99C3009.87,1967.47 3027.41,1938.36 3038.04,1944.69C3051.17,1952.51 3078.58,1992.12 3084.56,2009.9C3089.11,2023.44 3075.51,2044.5 3073.91,2051.41C3073.83,2051.75 3074.65,2051.23 3074.95,2051.4C3082.48,2055.79 3102.62,2077.68 3119.13,2077.74C3135.63,2077.8 3165.67,2063.51 3173.96,2051.76C3182.25,2040.01 3167.32,2022.1 3168.86,2007.24C3170.91,1987.5 3187.51,1944.65 3186.25,1933.33C3185.3,1924.83 3169.07,1942.92 3161.29,1939.35C3149.34,1933.88 3118.05,1912.74 3114.57,1900.46C3111.08,1888.18 3137.46,1877.32 3140.38,1865.67C3143.29,1854.03 3129.65,1842.37 3132.05,1830.59C3134.85,1816.88 3148.77,1783.42 3157.13,1783.42C3165.49,1783.42 3179.2,1817.27 3182.21,1830.59C3184.67,1841.47 3171.32,1852.85 3175.19,1863.32C3179.49,1874.96 3203.91,1890.59 3208.01,1900.46C3211.01,1907.71 3200.51,1918.92 3199.76,1922.52C3199.5,1923.75 3202.76,1921.01 3203.49,1922.03C3209.38,1930.4 3229.9,1965.63 3235.15,1972.72C3236.76,1974.9 3233.95,1967.09 3234.98,1964.58C3241.44,1948.75 3264.96,1891.16 3273.89,1877.76C3276.86,1873.31 3284.25,1886.61 3288.59,1884.17C3292.94,1881.73 3293.56,1867.85 3299.99,1863.11C3312.03,1854.23 3349.48,1830.55 3360.85,1830.9C3372.21,1831.25 3365.54,1853.82 3368.16,1865.21C3372.7,1884.99 3385.33,1928.64 3388.11,1949.56C3389.93,1963.2 3384.87,1977.83 3384.87,1990.72C3384.87,2002.83 3390.69,2015.06 3388.11,2026.89C3384,2045.81 3365.25,2091.38 3360.17,2104.22C3359.86,2105.01 3357.96,2103.12 3357.64,2103.91C3355.39,2109.42 3346.78,2125.58 3346.69,2137.29C3346.6,2149.15 3363.6,2163.72 3357.1,2175.04C3346.41,2193.67 3307.32,2247.68 3282.55,2249.09C3257.78,2250.49 3225.21,2193.78 3208.48,2183.47C3200.95,2178.83 3190.88,2189.02 3182.21,2187.24C3168.23,2184.38 3142.47,2163.78 3124.59,2166.29C3106.71,2168.81 3092.92,2208.91 3074.95,2202.34C3056.97,2195.77 3026.43,2139.47 3016.73,2126.87C3016.7,2126.84 3016.77,2126.75 3016.73,2126.75C3015.66,2126.75 3012.34,2127.6 3010.34,2126.87C2998.51,2122.58 2945.74,2109.62 2945.74,2101C2945.74,2092.37 2996.04,2079.19 3010.34,2075.12C3017.16,2073.18 3027.82,2076.62 3031.57,2076.55C3032.32,2076.54 3033.26,2075.36 3032.88,2074.72C3026.2,2063.61 2998.4,2021.38 2991.52,2009.9C2990.83,2008.76 2992.64,2005.04 2991.61,2005.88C2986.92,2009.7 2971.13,2030.08 2963.42,2032.81C2956.85,2035.14 2950.76,2017.9 2945.34,2022.29C2935.02,2030.62 2907.39,2066.67 2901.53,2082.84C2897.26,2094.58 2915.18,2107.9 2910.12,2119.32C2902.4,2136.72 2873.53,2187.24 2855.24,2187.24C2836.95,2187.24 2805.95,2139.61 2800.36,2119.32C2795.24,2100.73 2821.24,2079.34 2821.72,2065.55C2822.12,2054.13 2809.99,2027.39 2803.27,2036.64C2783.25,2064.23 2678.49,2189.92 2701.6,2231.1C2724.71,2272.28 2944.88,2266.15 2941.93,2283.71C2938.97,2301.26 2740.11,2328.07 2683.89,2336.43C2657.74,2340.32 2621.09,2333.89 2604.62,2333.89C2598.03,2333.89 2591.58,2337.04 2585.03,2336.43C2576.23,2335.62 2562.93,2331.3 2551.82,2329C2531.78,2324.85 2493.73,2310.31 2464.76,2311.54ZM3229.16,2064.41C3232.82,2080.6 3251.92,2098.3 3260.09,2104.42C3264.98,2108.09 3275.47,2106.07 3278.14,2101.12C3280.81,2096.18 3276.15,2083.09 3276.09,2074.74C3276.02,2066.8 3278.11,2054.87 3277.74,2050.98C3277.62,2049.7 3274.66,2052.44 3273.89,2051.4C3267.25,2042.5 3243.86,2004.93 3237.89,1997.57C3235.86,1995.06 3238.53,2004.04 3238.11,2007.24C3236.66,2018.38 3225.49,2048.21 3229.16,2064.41ZM3310.26,1933.62C3306.76,1940.98 3312.68,1955.07 3312.81,1964.58C3312.92,1973.3 3310.13,1986.54 3311.01,1990.69C3311.52,1993.04 3315.79,1988.92 3318.13,1989.47C3322.05,1990.39 3331.63,1996 3334.52,1996.2C3336.37,1996.34 3335.57,1992.57 3335.47,1990.72C3335.09,1982.94 3332.51,1961.28 3332.23,1949.56C3332,1939.83 3337.47,1923.05 3333.81,1920.39C3330.14,1917.74 3313.76,1926.25 3310.26,1933.62ZM3444.86,2209.12C3451.8,2232.33 3505.14,2261.45 3498.34,2289.82C3491.53,2318.19 3435.47,2379.33 3404.03,2379.33C3372.59,2379.33 3309.72,2319.66 3309.72,2289.82C3309.72,2259.98 3385.58,2215 3404.03,2200.3C3408.32,2196.89 3419.52,2207.06 3420.43,2201.65C3421.82,2193.36 3410.3,2167.65 3412.35,2150.52C3414.7,2130.95 3427.12,2084.26 3434.51,2084.26C3441.9,2084.26 3454.95,2129.71 3456.67,2150.52C3458.32,2170.37 3439.14,2190.02 3444.86,2209.12ZM1506.15,1903.2C1506.15,1893.96 1489.62,1886.09 1494.32,1878.14C1500.6,1867.53 1527.32,1839.5 1543.82,1839.5C1560.33,1839.5 1586.9,1867.66 1593.33,1878.14C1597.96,1885.7 1579.41,1894.71 1582.37,1902.38C1585.32,1910.06 1613.23,1916.74 1611.07,1924.19C1608.9,1931.65 1577.72,1943.39 1569.4,1947.14C1566.88,1948.27 1562.51,1946.69 1561.13,1946.69C1560.98,1946.69 1561.2,1947.01 1561.13,1947.14C1555.56,1956.81 1538.86,2004.71 1527.73,2004.71C1516.59,2004.71 1497.92,1964.06 1494.32,1947.14C1491.17,1932.3 1506.15,1914.7 1506.15,1903.2ZM1961.34,1790.22C1944.89,1796.47 1923.37,1842.77 1903.76,1839.5C1884.15,1836.23 1843.7,1793.55 1843.7,1770.58C1843.7,1747.61 1884.61,1706.36 1903.76,1701.66C1922.9,1696.96 1942.12,1737.92 1958.57,1742.39C1973.38,1746.42 1987.51,1725.07 2002.47,1728.49C2019.13,1732.3 2058.53,1753 2058.53,1765.25C2058.53,1777.5 2018.67,1797.84 2002.47,1802.01C1988.66,1805.55 1974.67,1785.15 1961.34,1790.22ZM1957.34,2106.6C1954.32,2123.95 2011.38,2140.21 2002.47,2159.54C1993.56,2178.87 1936.74,2222.56 1903.88,2222.56C1871.02,2222.56 1809.31,2180.23 1805.29,2159.54C1801.27,2138.85 1873.38,2115.77 1879.78,2098.42C1886.19,2081.07 1847.14,2067.61 1843.7,2055.43C1840.64,2044.57 1859.15,2036.23 1859.15,2025.31C1859.15,2014.39 1836.52,2000.61 1843.7,1989.93C1854.36,1974.08 1896.62,1930.21 1923.09,1930.21C1949.55,1930.21 1990.69,1975.44 2002.47,1989.93C2008.48,1997.32 1991.22,2007.96 1993.76,2017.13C1996.79,2028.05 2026.52,2040.98 2020.64,2055.43C2014.57,2070.34 1960.37,2089.24 1957.34,2106.6ZM2063.44,1836.4C2063.49,1836.03 2062.63,1836.63 2062.32,1836.41C2058.14,1833.57 2038.37,1825.03 2038.37,1819.33C2038.37,1813.64 2055.41,1804.19 2062.32,1802.25C2068.2,1800.6 2077.11,1810.61 2079.82,1807.68C2082.53,1804.74 2077.31,1792.22 2078.6,1784.64C2081.09,1769.99 2091.94,1730.92 2094.78,1719.76C2094.96,1719.03 2096.11,1718.2 2095.59,1717.65C2091.12,1712.86 2066.07,1700.09 2067.95,1691.01C2069.83,1681.93 2098.47,1667.61 2106.88,1663.17C2110.3,1661.37 2116.02,1667.46 2118.41,1664.42C2123.56,1657.89 2131.16,1622.05 2137.75,1623.98C2144.34,1625.9 2154.57,1667.3 2157.95,1675.96C2157.97,1676 2158.05,1675.93 2158.07,1675.96C2164.86,1689.2 2195.22,1730.79 2198.7,1755.37C2202.02,1778.76 2175.76,1800.04 2178.98,1823.45C2182.35,1847.96 2216.31,1878.25 2218.93,1902.43C2221.46,1925.76 2198.09,1952.65 2194.72,1968.53C2192.68,1978.12 2202.18,1988.51 2198.7,1997.69C2192.6,2013.79 2167.57,2054.87 2158.07,2065.17C2154.15,2069.41 2144.41,2059.45 2141.7,2059.45C2139.79,2059.45 2142.68,2063.47 2141.81,2065.17C2134.9,2078.66 2114.07,2140.4 2100.19,2140.4C2086.32,2140.4 2064.09,2085.31 2058.57,2065.17C2054.49,2050.24 2069.15,2034.88 2067.1,2019.54C2064.5,2000.01 2044.18,1970.51 2042.92,1947.98C2041.7,1926.09 2057.05,1897.85 2059.55,1884.36C2060.61,1878.65 2057.46,1872.81 2057.93,1867.02C2058.58,1859.03 2062.71,1841.5 2063.44,1836.4ZM2118.62,1981.45C2118.33,1979.76 2115.33,1977.28 2114.31,1978.65C2112.96,1980.46 2110.01,1989.27 2110.53,1992.27C2111,1994.96 2116.09,1998.48 2117.44,1996.68C2118.79,1994.88 2119.14,1984.46 2118.62,1981.45ZM2218.94,1556.8C2212.47,1553.57 2177.66,1544.96 2180.14,1538.75C2182.61,1532.53 2224.63,1522.74 2233.8,1519.51C2234.23,1519.36 2234.78,1519.39 2235.16,1519.38C2235.46,1519.37 2235.77,1519.44 2236.08,1519.44C2237.05,1519.44 2239.41,1518.92 2240.97,1519.38C2251.93,1522.6 2300.08,1532.34 2301.81,1538.75C2303.55,1545.15 2259.78,1554.6 2251.38,1557.83C2251.29,1557.87 2251.42,1558.03 2251.38,1558.11C2248.68,1564.62 2240.56,1596.85 2235.16,1596.85C2229.75,1596.85 2221.63,1564.79 2218.93,1558.11C2218.77,1557.71 2219.33,1557 2218.94,1556.8ZM3256.93,1676.48C3256.93,1675.05 3254.01,1676.87 3252.62,1676.51C3234.49,1671.72 3148.14,1657.33 3148.14,1647.74C3148.14,1638.15 3217.8,1618.98 3252.62,1618.98C3287.45,1618.98 3345.17,1639.46 3357.1,1647.74C3367.78,1655.15 3328.37,1659.93 3324.22,1668.68C3320.08,1677.44 3331.36,1691.81 3332.23,1700.27C3332.9,1706.7 3329.48,1715.1 3329.48,1719.47C3329.48,1722 3333.52,1724.36 3332.23,1726.54C3329.9,1730.47 3322.05,1738.74 3315.51,1743.06C3308.87,1747.44 3297.89,1751.44 3292.43,1752.8C3289.26,1753.59 3286.02,1751.24 3282.76,1751.24C3276.89,1751.24 3265.5,1754.83 3257.22,1752.8C3240.47,1748.68 3182.98,1735.28 3182.21,1726.54C3181.45,1717.79 3240.89,1704.7 3252.62,1700.32C3252.64,1700.31 3252.62,1700.29 3252.62,1700.27C3253.34,1696.3 3256.93,1680.44 3256.93,1676.48ZM3494.14,1974.32C3494.14,1972.06 3489.38,1975.85 3487.38,1974.81C3481.14,1971.54 3456.67,1961.42 3456.67,1954.72C3456.67,1948.03 3477.15,1934.64 3487.38,1934.64C3497.62,1934.64 3513,1951.01 3518.09,1954.72C3518.68,1955.15 3517.18,1956.91 3517.91,1956.91C3520.29,1956.91 3528.3,1952.04 3532.37,1954.72C3542.28,1961.26 3577.36,1982.33 3577.36,1996.14C3577.36,2009.95 3547.37,2037.56 3532.37,2037.56C3517.38,2037.56 3493.76,2006.68 3487.38,1996.14C3483.44,1989.62 3494.14,1977.87 3494.14,1974.32ZM787.264,2019.2C800.151,2019.2 825.924,2026.62 825.924,2030.34C825.924,2034.05 800.151,2041.48 787.264,2041.48C774.377,2041.48 748.603,2034.05 748.603,2030.34C748.603,2026.62 774.377,2019.2 787.264,2019.2ZM1045.63,1940.36C1051.49,1940.36 1063.22,1957.6 1063.22,1966.22C1063.22,1974.84 1051.49,1992.08 1045.63,1992.08C1039.77,1992.08 1028.04,1974.84 1028.04,1966.22C1028.04,1957.6 1039.77,1940.36 1045.63,1940.36ZM1172.77,1853.18C1181.74,1853.18 1199.68,1874.55 1199.68,1885.24C1199.68,1895.92 1181.74,1917.29 1172.77,1917.29C1163.8,1917.29 1145.86,1895.92 1145.86,1885.24C1145.86,1874.55 1163.8,1853.18 1172.77,1853.18ZM1289.46,1954.32C1301.62,1954.32 1325.92,1975.91 1325.92,1986.7C1325.92,1997.5 1301.62,2019.08 1289.46,2019.08C1277.31,2019.08 1253.01,1997.5 1253.01,1986.7C1253.01,1975.91 1277.31,1954.32 1289.46,1954.32ZM1349.14,1899.66C1354.88,1899.66 1366.35,1909.03 1366.35,1913.72C1366.35,1918.41 1354.88,1927.79 1349.14,1927.79C1343.41,1927.79 1331.94,1918.41 1331.94,1913.72C1331.94,1909.03 1343.41,1899.66 1349.14,1899.66ZM1568.52,1793.97C1570.98,1793.97 1575.9,1797.52 1575.9,1799.29C1575.9,1801.07 1570.98,1804.61 1568.52,1804.61C1566.05,1804.61 1561.13,1801.07 1561.13,1799.29C1561.13,1797.52 1566.05,1793.97 1568.52,1793.97ZM611.87,2143.72C616.922,2143.72 627.025,2149.14 627.025,2151.86C627.025,2154.57 616.922,2160 611.87,2160C606.819,2160 596.716,2154.57 596.716,2151.86C596.716,2149.14 606.819,2143.72 611.87,2143.72ZM1781.98,1639.86C1792.78,1639.86 1814.36,1660.46 1814.36,1670.76C1814.36,1681.06 1792.78,1701.66 1781.98,1701.66C1771.19,1701.66 1749.61,1681.06 1749.61,1670.76C1749.61,1660.46 1771.19,1639.86 1781.98,1639.86ZM1877.32,1553.11C1882.04,1553.52 1889.01,1583.2 1887.76,1597.63C1886.51,1612.06 1874.57,1640.1 1869.84,1639.69C1865.11,1639.29 1858.15,1609.61 1859.39,1595.18C1860.64,1580.75 1872.59,1552.71 1877.32,1553.11ZM1904.12,1562.17C1909.42,1562.17 1920,1583.85 1920,1594.68C1920,1605.52 1909.42,1627.19 1904.12,1627.19C1898.83,1627.19 1888.25,1605.52 1888.25,1594.68C1888.25,1583.85 1898.83,1562.17 1904.12,1562.17ZM1962.38,1857.82C1981.8,1857.82 2020.64,1873.96 2020.64,1882.02C2020.64,1890.09 1981.8,1906.22 1962.38,1906.22C1942.96,1906.22 1904.12,1890.09 1904.12,1882.02C1904.12,1873.96 1942.96,1857.82 1962.38,1857.82ZM2367.17,1558.11C2372.25,1558.11 2382.42,1563.95 2382.42,1566.87C2382.42,1569.79 2372.25,1575.63 2367.17,1575.63C2362.09,1575.63 2351.92,1569.79 2351.92,1566.87C2351.92,1563.95 2362.09,1558.11 2367.17,1558.11ZM1982.74,1818.56C1987.77,1818.56 1997.81,1824.51 1997.81,1827.49C1997.81,1830.46 1987.77,1836.41 1982.74,1836.41C1977.72,1836.41 1967.67,1830.46 1967.67,1827.49C1967.67,1824.51 1977.72,1818.56 1982.74,1818.56ZM3086.24,1664.73C3101.88,1664.73 3133.16,1691.98 3133.16,1705.6C3133.16,1719.23 3101.88,1746.48 3086.24,1746.48C3070.6,1746.48 3039.32,1719.23 3039.32,1705.6C3039.32,1691.98 3070.6,1664.73 3086.24,1664.73ZM3401.18,2075.12C3404.72,2075.12 3411.8,2112.49 3411.8,2131.18C3411.8,2149.87 3404.72,2187.24 3401.18,2187.24C3397.64,2187.24 3390.56,2149.87 3390.56,2131.18C3390.56,2112.49 3397.64,2075.12 3401.18,2075.12ZM3531.87,2104.22C3552.14,2104.22 3592.7,2132.59 3592.7,2146.78C3592.7,2160.96 3552.14,2189.33 3531.87,2189.33C3511.59,2189.33 3471.04,2160.96 3471.04,2146.78C3471.04,2132.59 3511.59,2104.22 3531.87,2104.22ZM3429.58,1989.47C3443.4,1989.47 3471.04,2021.07 3471.04,2036.87C3471.04,2052.66 3443.4,2084.26 3429.58,2084.26C3415.76,2084.26 3388.11,2052.66 3388.11,2036.87C3388.11,2021.07 3415.76,1989.47 3429.58,1989.47ZM3813.16,1735.44C3822.11,1735.44 3840,1752.33 3840,1760.77C3840,1769.21 3822.11,1786.09 3813.16,1786.09C3804.22,1786.09 3786.33,1769.21 3786.33,1760.77C3786.33,1752.33 3804.22,1735.44 3813.16,1735.44Z" style="fill:rgb(121,118,32);fill-opacity:0.69;"/>
        </g>
    </g>
</svg>
