<?xml version="1.0" encoding="UTF-8" standalone="no"?>
<!DOCTYPE svg PUBLIC "-//W3C//DTD SVG 1.1//EN" "http://www.w3.org/Graphics/SVG/1.1/DTD/svg11.dtd">
<svg width="100%" height="100%" viewBox="0 0 3840 2160" version="1.1" xmlns="http://www.w3.org/2000/svg" xmlns:xlink="http://www.w3.org/1999/xlink" xml:space="preserve" xmlns:serif="http://www.serif.com/" style="fill-rule:evenodd;clip-rule:evenodd;stroke-linejoin:round;stroke-miterlimit:2;">
    <g>
        <path d="M2697.38,1221.65C2719.6,1211.21 2757.48,1174.35 2787.77,1162.66C2818.06,1150.98 2915.42,1107.7 2951,1113.05C2986.58,1118.4 2998.87,1111.83 3024.1,1116.61C3049.34,1121.4 3058.11,1123.73 3093.9,1117.68C3129.69,1111.63 3141.06,1125.57 3211.15,1109.64C3281.24,1093.71 3339.87,1071.05 3370.44,1070.8C3401.02,1070.55 3413.62,1049.7 3457.18,1049.77C3500.74,1049.83 3593.08,1012.98 3638.93,1001.52C3684.8,990.052 3807.42,949.681 3830.71,936.673C3854,923.665 3883.98,911.334 3883.98,911.334L3892.85,1586.31C3892.85,1586.31 2675.16,1232.09 2697.38,1221.65Z" style="fill:rgb(112,122,81);"/>
        <path d="M3852.37,1234.24C3851.37,1239.06 3863.23,1243.38 3867.72,1248.82C3880.16,1263.9 3926.02,1292.62 3926.99,1324.71C3928.33,1368.8 3940.82,1509.99 3875.74,1513.38C3783.65,1518.19 3452.9,1382.09 3374.51,1353.54C3364.19,1349.78 3398.04,1343.81 3405.41,1342.09C3409.76,1341.07 3416.68,1344.17 3418.76,1343.21C3420.83,1342.24 3417.56,1338.59 3417.88,1336.29C3418.36,1332.82 3421.62,1325.49 3421.62,1322.4C3421.62,1320.4 3416.2,1318.8 3417.88,1317.71C3421.64,1315.28 3439.19,1309.49 3444.18,1307.8C3445.32,1307.41 3447.01,1307.62 3447.79,1307.59C3448.14,1307.58 3448.5,1307.61 3448.86,1307.61C3449.3,1307.61 3450.58,1308.11 3450.44,1307.59C3449.93,1305.63 3443.88,1299.6 3445.74,1295.81C3448.33,1290.53 3463.27,1280.16 3465.96,1275.95C3467.17,1274.05 3460.04,1271.9 3461.86,1270.56C3465.29,1268.04 3480.32,1262.18 3486.57,1260.79C3490.76,1259.86 3496.35,1262.43 3499.36,1262.2C3501.36,1262.05 3503.07,1260.61 3504.67,1259.41C3507.67,1257.18 3514.17,1250.24 3517.32,1248.82C3519.32,1247.92 3522,1250.75 3523.55,1250.89C3524.65,1251 3526.02,1250.6 3526.63,1249.68C3527.61,1248.21 3529.52,1243.3 3529.44,1242.08C3529.37,1240.98 3527.09,1242.91 3526.14,1242.35C3523.11,1240.57 3511.29,1235.04 3511.29,1231.38C3511.29,1227.73 3523.31,1222.22 3526.14,1220.41C3526.73,1220.03 3528.8,1220.97 3528.25,1220.52C3526.74,1219.29 3515.6,1215.65 3517.09,1213C3518.57,1210.34 3533.78,1206 3537.15,1204.6C3537.19,1204.58 3537.25,1204.62 3537.29,1204.6C3537.33,1204.57 3537.44,1204.44 3537.38,1204.44C3536.86,1204.44 3535.13,1205.01 3534.13,1204.6C3530.75,1203.2 3519.89,1197.72 3517.09,1196.09C3516.71,1195.87 3517.71,1194.81 3517.28,1194.81C3512.59,1194.81 3498.39,1196.5 3488.94,1196.09C3477.62,1195.6 3452.55,1193.17 3449.35,1191.84C3446.15,1190.51 3466.44,1188.99 3469.74,1188.12C3470.26,1187.98 3468.63,1186.77 3469.15,1186.63C3474.71,1185.05 3495.15,1179.88 3503.15,1178.67C3507.76,1177.97 3514.8,1179.39 3517.12,1179.37C3517.4,1179.37 3516.91,1178.75 3517.09,1178.53C3519.07,1176.06 3527.52,1166.98 3529.01,1164.54C3529.54,1163.67 3527.05,1163.83 3526.04,1163.9C3521.48,1164.23 3508.09,1166.19 3501.64,1166.49C3496.87,1166.72 3492,1165.72 3487.34,1165.72C3482.78,1165.72 3478.22,1166.94 3473.69,1166.49C3467.35,1165.87 3450.02,1163.48 3449.35,1161.99C3448.67,1160.49 3462.86,1158.93 3469.64,1157.54C3478.36,1155.75 3493.33,1152.09 3501.64,1151.25C3507.57,1150.65 3516.92,1152.83 3519.49,1152.51C3520.82,1152.34 3516.09,1150.2 3517.09,1149.32C3519.58,1147.12 3531.62,1141.47 3534.46,1139.3C3535.26,1138.7 3533.45,1137.06 3534.13,1136.33C3536.88,1133.35 3547.83,1123.88 3550.99,1121.41C3551.54,1120.98 3552.5,1121.91 3553.08,1121.52C3556.42,1119.29 3567.87,1110.25 3571.05,1108C3571.36,1107.79 3572.18,1108.41 3572.18,1108.03C3572.18,1106.88 3569.73,1103.02 3571.05,1101.08C3574.24,1096.41 3584.66,1080.81 3591.33,1080C3597.99,1079.19 3604.91,1093.55 3611.07,1096.25C3616.32,1098.56 3625.74,1091.06 3628.27,1096.21C3632.15,1104.11 3630.41,1134.54 3634.36,1143.7C3636.88,1149.56 3648.14,1151.11 3651.98,1151.18C3654.95,1151.23 3656.49,1145.28 3657.39,1144.08C3657.41,1144.06 3657.37,1144.01 3657.39,1143.98C3660.07,1140.74 3672.64,1130.18 3673.51,1124.6C3674.38,1119.03 3660.87,1115.56 3662.6,1110.52C3664.34,1105.48 3677.35,1095.02 3683.93,1094.37C3690.51,1093.72 3696.65,1105.82 3702.1,1106.62C3707.48,1107.41 3711.35,1098.83 3716.63,1099.17C3721.91,1099.51 3731.9,1105.89 3733.77,1108.67C3735.5,1111.25 3725.91,1113.41 3727.83,1115.86C3729.95,1118.57 3743.49,1123.02 3746.48,1124.91C3747.15,1125.34 3745.03,1126.95 3745.78,1127.2C3748.68,1128.14 3763.86,1129.55 3763.9,1130.56C3763.94,1131.57 3743.18,1127.96 3746.02,1133.27C3749.11,1139.03 3776.61,1158.29 3782.43,1165.12C3784.43,1167.45 3778.91,1171.93 3780.97,1174.21C3787.31,1181.24 3810.9,1202.57 3820.5,1207.3C3826.1,1210.06 3832.53,1201.15 3838.6,1202.58C3847.47,1204.69 3871.43,1214.64 3873.73,1219.92C3876.03,1225.19 3853.37,1229.42 3852.37,1234.24ZM3530.78,1220.96C3530.78,1221 3531.81,1221.28 3532.02,1221.31C3532.08,1221.32 3532.09,1221.14 3532.03,1221.12C3531.82,1221.06 3530.78,1220.93 3530.78,1220.96ZM3044.5,1211.34C3044.5,1209.88 3036.43,1207.09 3035.14,1205.5C3034.29,1204.47 3036.55,1202.55 3036.76,1201.84C3036.82,1201.6 3036.25,1201.43 3036.37,1201.21C3040.44,1193.66 3048.55,1163.96 3061.22,1156.51C3073.89,1149.05 3103.8,1155.64 3112.37,1156.47C3114.02,1156.63 3111.27,1160.86 3112.62,1161.45C3113.97,1162.03 3117.85,1159.48 3120.46,1159.96C3124.94,1160.8 3137.89,1164.45 3139.47,1166.48C3141.04,1168.51 3131.34,1170.85 3129.91,1172.13C3129.36,1172.62 3130.11,1174.07 3130.85,1174.14C3132.28,1174.29 3135.96,1172.68 3138.53,1172.99C3142.02,1173.41 3149,1176.29 3151.79,1176.65C3153.04,1176.82 3154.82,1175.89 3155.27,1175.17C3155.72,1174.45 3153.77,1172.97 3154.52,1172.34C3156.86,1170.37 3166.39,1164.83 3169.31,1163.36C3170.11,1162.95 3172.01,1164.41 3172.01,1163.51C3172.01,1162.16 3168.91,1158.15 3169.31,1155.29C3169.75,1152.08 3172.32,1147.58 3174.67,1144.22C3177.13,1140.69 3181.69,1135.38 3184.1,1134.1C3185.73,1133.22 3187.26,1136.5 3189.11,1136.5C3191.07,1136.5 3193.6,1133.28 3195.84,1134.1C3198.56,1135.09 3204.47,1139.97 3205.45,1142.48C3206.37,1144.85 3202.08,1146.98 3201.69,1149.12C3201.32,1151.2 3203.82,1153.29 3203.16,1155.29C3202.11,1158.44 3196.72,1165.77 3195.4,1168.04C3195.25,1168.3 3195,1168.78 3195.26,1168.93C3198.2,1170.74 3216.12,1172.78 3213.06,1178.84C3209.92,1185.05 3183.13,1201.53 3176.44,1206.22C3175.45,1206.92 3173.24,1206.15 3172.9,1207.01C3172.57,1207.87 3173.29,1210.35 3174.44,1211.38C3177.82,1214.41 3195.14,1220.36 3193.14,1225.14C3191.14,1229.92 3168.93,1237.67 3162.47,1240.08C3159.93,1241.02 3156.75,1238.27 3154.36,1239.55C3149.71,1242.04 3138.6,1252.53 3134.55,1255.03C3133.27,1255.82 3131.33,1253.77 3130.07,1254.58C3126.81,1256.68 3117.65,1265.44 3114.96,1267.61C3114.7,1267.82 3114.11,1267.27 3113.96,1267.57C3113.29,1268.85 3112.01,1275.62 3110.97,1275.28C3109.93,1274.92 3109.11,1268.63 3107.73,1265.47C3105.7,1260.81 3100.28,1250.42 3098.78,1247.31C3098.71,1247.15 3098.97,1246.77 3098.79,1246.78C3097.54,1246.79 3093.46,1248.67 3091.29,1247.41C3083.5,1242.89 3061.45,1225.19 3052.1,1219.66C3046.99,1216.64 3036.4,1215.62 3035.14,1214.23C3033.87,1212.85 3044.5,1212.79 3044.5,1211.34ZM3261.58,1269.94C3260.37,1270.33 3258.48,1272.57 3256.62,1273.33C3253.69,1274.54 3244.39,1277.96 3243.97,1277.18C3243.54,1276.4 3251.61,1270.39 3254.07,1268.63C3255.43,1267.66 3257.95,1267.11 3258.68,1266.64C3258.93,1266.48 3258.27,1266 3258.46,1265.78C3259.33,1264.77 3262.09,1260.58 3263.91,1260.58C3265.73,1260.58 3269.36,1264.05 3269.36,1265.78C3269.36,1267.52 3265.21,1270.29 3263.91,1270.98C3263.16,1271.38 3262.39,1269.68 3261.58,1269.94ZM3330.22,1346.81C3325.24,1346.81 3320.69,1355.58 3315.21,1354.4C3309.33,1353.14 3294.97,1344.29 3294.97,1339.24C3294.97,1334.18 3309.06,1325.08 3315.21,1324.07C3321.36,1323.07 3326.9,1332.73 3331.87,1333.23C3336.69,1333.71 3340.31,1325.94 3345.03,1327.04C3350.37,1328.29 3363.89,1336.16 3363.89,1340.72C3363.89,1345.28 3350.64,1353.38 3345.03,1354.4C3339.57,1355.39 3335.19,1346.81 3330.22,1346.81ZM3250.53,1236.48C3250.52,1236.51 3250.57,1236.57 3250.54,1236.59C3249.02,1237.64 3244.46,1242.84 3241.42,1242.84C3238.38,1242.84 3233.02,1238.42 3232.3,1236.59C3231.58,1234.75 3236.56,1233.5 3237.11,1231.81C3237.65,1230.12 3234.87,1228.17 3235.58,1226.45C3236.93,1223.15 3242,1212.02 3245.21,1212.02C3248.43,1212.02 3253.4,1223.38 3254.85,1226.45C3255.43,1227.7 3253.85,1229.83 3253.9,1230.48C3253.93,1230.9 3254.75,1230.24 3255.16,1230.33C3256.14,1230.57 3259.77,1231.36 3259.77,1231.87C3259.77,1232.39 3256.33,1233.23 3255.16,1233.41C3254.34,1233.54 3253.41,1232.53 3252.73,1232.98C3251.96,1233.49 3250.9,1235.88 3250.53,1236.48ZM3023.76,1266.13C3021.42,1264.79 3018.68,1271.17 3016.46,1269.63C3011.94,1266.51 2996.68,1254.82 2996.68,1247.41C2996.68,1240.01 3010.62,1226.92 3016.46,1225.2C3022.29,1223.48 3028.4,1235.55 3031.68,1237.09C3033.25,1237.83 3034.97,1233.16 3036.14,1234.43C3039.33,1237.86 3050.78,1249.93 3050.78,1257.67C3050.78,1265.42 3040.65,1279.51 3036.14,1280.92C3031.64,1282.33 3027.04,1268.01 3023.76,1266.13ZM3859.91,1065.98C3859.91,1068.54 3883.22,1071.52 3880.08,1075.38C3876.95,1079.25 3846.05,1085.46 3841.1,1089.19C3837.74,1091.72 3848.33,1094.08 3850.36,1097.77C3855.96,1107.98 3873.91,1141.8 3874.74,1150.48C3875.35,1156.93 3860.91,1146.55 3855.31,1149.81C3848.06,1154.02 3839.2,1175.25 3831.25,1175.77C3823.29,1176.29 3814.46,1158.35 3807.59,1152.9C3802.33,1148.74 3792.43,1145.64 3790.03,1143.09C3788.59,1141.57 3792.66,1138.6 3793.17,1137.65C3793.21,1137.58 3793.12,1137.47 3793.05,1137.43C3791.74,1136.53 3785.78,1133.89 3785.3,1132.26C3784.81,1130.62 3789.37,1128.84 3790.16,1127.63C3790.64,1126.88 3789.9,1125.84 3790.03,1124.96C3790.33,1122.83 3794.57,1117.09 3791.97,1114.84C3788.1,1111.48 3769.58,1107.64 3766.76,1104.8C3764.21,1102.23 3773.63,1099.96 3775.08,1097.8C3776.18,1096.14 3773.56,1092.57 3775.41,1091.82C3779.07,1090.35 3793.65,1090.33 3797.02,1088.94C3798.76,1088.23 3796.73,1085 3795.62,1083.49C3793.95,1081.23 3784.53,1078.33 3787,1075.38C3789.48,1072.44 3809.75,1068.38 3810.46,1065.82C3811.16,1063.26 3793.44,1061.47 3791.23,1060.03C3789.39,1058.83 3798.83,1058.6 3797.16,1057.18C3795.04,1055.41 3777.25,1052.26 3778.54,1049.36C3779.83,1046.46 3805.33,1043.22 3804.9,1039.79C3804.48,1036.35 3772.86,1032.81 3775.99,1028.74C3779.13,1024.67 3807.81,1015.34 3823.72,1015.34C3839.62,1015.34 3868.1,1024.71 3871.44,1028.74C3874.78,1032.77 3843.76,1036.09 3843.76,1039.53C3843.76,1042.96 3868.37,1046.87 3871.44,1049.36C3874.18,1051.58 3860.75,1052.7 3862.19,1054.48C3863.63,1056.26 3880.46,1058.11 3880.08,1060.03C3879.7,1061.94 3859.91,1063.42 3859.91,1065.98ZM3270.14,1217.75C3267.31,1214.09 3250.1,1210.43 3250.54,1206.75C3250.97,1203.07 3267.22,1197.28 3272.75,1195.67C3276.29,1194.65 3280.11,1197.12 3283.71,1197.12C3287.3,1197.12 3290.94,1194.65 3294.38,1195.67C3299.76,1197.28 3314.92,1203.14 3316.01,1206.75C3317.1,1210.35 3303.62,1215 3300.94,1217.3C3300.07,1218.05 3299.88,1219.43 3299.88,1220.58C3299.89,1222.1 3301.96,1224.69 3300.97,1226.4C3299.02,1229.77 3290.78,1238.44 3288.21,1240.78C3287.55,1241.39 3286.36,1240.1 3285.54,1240.47C3283.86,1241.23 3280.58,1246.94 3278.1,1245.32C3275.11,1243.35 3268.88,1233.26 3267.55,1228.67C3266.51,1225.07 3272.43,1220.7 3270.14,1217.75ZM3331.68,1269.87C3337.11,1269.87 3347.97,1279.28 3347.97,1283.98C3347.97,1288.69 3337.11,1298.09 3331.68,1298.09C3326.25,1298.09 3315.39,1288.69 3315.39,1283.98C3315.39,1279.28 3326.25,1269.87 3331.68,1269.87ZM3262.16,1305.58C3268.62,1305.58 3281.53,1317.91 3281.53,1324.07C3281.53,1330.24 3268.62,1342.56 3262.16,1342.56C3255.7,1342.56 3242.79,1330.24 3242.79,1324.07C3242.79,1317.91 3255.7,1305.58 3262.16,1305.58ZM3353.17,1240.78C3355.98,1240.78 3361.62,1246.51 3361.62,1249.37C3361.62,1252.24 3355.98,1257.96 3353.17,1257.96C3350.35,1257.96 3344.72,1252.24 3344.72,1249.37C3344.72,1246.51 3350.35,1240.78 3353.17,1240.78ZM3335.45,1240.78C3338.54,1240.78 3344.72,1248.61 3344.72,1252.52C3344.72,1256.43 3338.54,1264.26 3335.45,1264.26C3332.36,1264.26 3326.18,1256.43 3326.18,1252.52C3326.18,1248.61 3332.36,1240.78 3335.45,1240.78ZM3638.64,1070.53C3636.9,1068.64 3615.34,1067.45 3618.64,1065.74C3621.94,1064.02 3651.48,1061.14 3658.44,1060.22C3659.1,1060.13 3660.43,1060.82 3660.43,1060.22C3660.43,1059.63 3657.25,1057.31 3658.44,1056.64C3662.22,1054.53 3675.54,1048.37 3683.11,1047.55C3690.12,1046.79 3699.86,1051.06 3703.84,1051.72C3704.88,1051.89 3706.05,1051.05 3706.99,1051.53C3710.18,1053.14 3722.15,1058.18 3722.98,1061.39C3723.81,1064.6 3713.35,1068.66 3711.94,1070.77C3711.17,1071.94 3715.84,1073.55 3714.54,1074.07C3709.65,1076.01 3688.84,1081.03 3682.57,1082.4C3680.74,1082.8 3678.8,1082.05 3676.94,1082.27C3672.48,1082.79 3662.91,1086.33 3655.83,1085.56C3647.86,1084.68 3631.96,1079.55 3629.1,1077.04C3626.23,1074.54 3640.38,1072.41 3638.64,1070.53ZM3327.43,1183.54C3324.86,1179.53 3304.08,1174.86 3304.29,1170.52C3304.49,1166.17 3323.46,1159.56 3328.66,1157.48C3330.79,1156.62 3334.71,1158.97 3335.52,1158C3336.33,1157.03 3332.15,1153.39 3333.53,1151.65C3336.21,1148.28 3345.57,1137.75 3351.6,1137.75C3357.62,1137.75 3366.97,1148.31 3369.66,1151.65C3371.01,1153.32 3367.35,1156.62 3367.8,1157.81C3368.25,1159 3370.86,1158.76 3372.35,1158.8C3373.85,1158.84 3375.4,1158.63 3376.79,1158.06C3381.32,1156.18 3391.58,1146.3 3399.55,1147.55C3407.51,1148.8 3420.98,1161.04 3424.58,1165.56C3426.6,1168.08 3420.2,1171.62 3421.17,1174.63C3422.14,1177.63 3432.58,1180.23 3430.4,1183.56C3428.22,1186.88 3415.28,1193.92 3408.1,1194.59C3400.92,1195.26 3391.04,1188.74 3387.32,1187.57C3386.84,1187.42 3386.31,1187.63 3385.8,1187.58C3383.31,1187.37 3374.84,1186.41 3372.35,1186.26C3371.84,1186.23 3370.75,1186.16 3370.88,1186.66C3371.24,1188.05 3376.56,1192.53 3374.51,1194.59C3370.56,1198.56 3356.26,1210.5 3347.14,1210.5C3338.01,1210.5 3323.05,1199.08 3319.77,1194.59C3317.12,1190.97 3329.86,1187.31 3327.43,1183.54ZM3423.27,1119.29C3426.56,1119.29 3433.13,1125.45 3433.13,1128.52C3433.13,1131.6 3426.56,1137.75 3423.27,1137.75C3419.98,1137.75 3413.41,1131.6 3413.41,1128.52C3413.41,1125.45 3419.98,1119.29 3423.27,1119.29Z" style="fill:rgb(84,97,41);"/>
        <path d="M1459.5,1675.28C1475.76,1634.27 1503.26,1560.93 1490.66,1533.77C1478.05,1506.61 1474.79,1503.9 1474.55,1492.06C1474.31,1480.22 1468.74,1479.7 1452.06,1479.7C1435.38,1479.7 1435.24,1468.29 1424.48,1462.86C1413.73,1457.42 1419.61,1460.38 1400.84,1456.49C1382.07,1452.6 1390.99,1448.16 1376.25,1443.34C1361.5,1438.53 1365.85,1438.89 1351.66,1434.41C1337.46,1429.93 1328.44,1432.48 1331.67,1415.36C1334.91,1398.25 1351.64,1384.46 1347.23,1376.81C1342.83,1369.16 1330.88,1363.83 1337.24,1360.47C1343.6,1357.12 1354.72,1338.9 1343.17,1345.12C1331.62,1351.34 1294.86,1350.26 1288.55,1348.87C1282.25,1347.48 1284.44,1336.96 1290.26,1336.81C1296.08,1336.66 1309.19,1321.2 1298.36,1317.88C1287.54,1314.56 1281.12,1310.79 1282.26,1304.57C1283.4,1298.35 1281.68,1295.93 1268.66,1299.16C1255.65,1302.38 1227.03,1304.06 1219.89,1303.45C1212.74,1302.84 1214.78,1308.61 1203.76,1308.75C1192.74,1308.9 1171.89,1304.67 1181.99,1300.57C1192.1,1296.48 1187.96,1293.3 1173.4,1292.54C1158.85,1291.79 1138.48,1288.86 1130.77,1289.72C1123.06,1290.58 1118.05,1291.2 1110.76,1293.72C1103.46,1296.24 1093.62,1293.15 1087.33,1289.1C1081.04,1285.05 1076.61,1278.58 1069.11,1279.41C1061.61,1280.24 1055.71,1279.02 1051.35,1274.44C1046.99,1269.86 1042.42,1265.57 1038.58,1261.93C1034.74,1258.3 1031.91,1250.76 1049.25,1251.76C1066.59,1252.77 1076.32,1260.73 1086.21,1249.7C1096.11,1238.67 1098.49,1233.1 1105.84,1232.26C1113.19,1231.42 1117.65,1224.8 1112.08,1223.28C1106.51,1221.76 1104.04,1221.64 1099.48,1221.08C1094.92,1220.52 1096.28,1212.16 1087.19,1216.31C1078.11,1220.45 1065.76,1223.33 1065.18,1217.38C1064.61,1211.42 1089.32,1196.43 1073.11,1193.28C1056.91,1190.12 1034.39,1184.93 1025.69,1188.35C1017,1191.76 1035.12,1175.54 1017.72,1180.32C1000.31,1185.1 994.582,1189.01 990.996,1190C987.41,1190.98 985.258,1186.2 980.344,1185.8C975.43,1185.4 964.519,1189.22 971.423,1181.82C978.327,1174.41 973.914,1164.95 963.956,1167.58C953.997,1170.21 942.795,1173.14 948.085,1166.82C953.375,1160.5 950.411,1161.68 940.503,1167.9C930.595,1174.11 928.525,1169.83 934.033,1166.02C939.541,1162.21 925.517,1159.99 922.033,1161.2C918.549,1162.41 914.695,1154.31 907.83,1156.34C900.965,1158.37 899.748,1160.65 895.319,1156.94C890.891,1153.24 896.849,1143 885.832,1143.28C874.815,1143.55 867.578,1133.77 862.716,1135.83C857.854,1137.89 833.902,1134.7 845.295,1126.16C856.689,1117.62 866.516,1115.08 870.143,1113.75C873.769,1112.42 864.786,1096.14 875.849,1097.4C886.912,1098.65 954.039,1103.55 971.13,1100.24C988.221,1096.92 1018.64,1098.65 1022.74,1091.85C1026.83,1085.04 1018.31,1080.5 1024.38,1075.35C1030.44,1070.19 1045.01,1058.69 1052.36,1064.15C1059.72,1069.62 1053.46,1059.21 1062.82,1054.2C1072.17,1049.2 1114.77,1015.86 1121.76,1014.91C1128.75,1013.96 1130.06,1021.33 1138.01,1017.89C1145.97,1014.46 1158.69,1024.88 1165.63,1028.56C1172.57,1032.25 1186.23,1033.37 1187.43,1043.03C1188.62,1052.7 1189.83,1049.29 1196.36,1052.31C1202.89,1055.33 1210.79,1060.13 1210.79,1066.65C1210.79,1073.17 1213.2,1079.08 1222.35,1080C1231.5,1080.92 1222.7,1089.38 1233.39,1090.69C1244.07,1091.99 1246.6,1088.89 1251.69,1092.43C1256.78,1095.97 1257.54,1083.71 1267.91,1087.46C1278.29,1091.2 1304.99,1107.29 1306.21,1119.36C1307.44,1131.42 1302.66,1138.93 1308.55,1141.81C1314.44,1144.68 1319.49,1159.07 1323.76,1159.14C1328.04,1159.22 1329.99,1174.3 1335.47,1173.07C1340.95,1171.83 1334.83,1172.74 1339.75,1181.3C1344.68,1189.85 1348.77,1203.13 1357.09,1210.55C1365.41,1217.98 1382.37,1218.2 1388.08,1225.08C1393.79,1231.95 1401.27,1254.45 1415.14,1245.74C1429,1237.03 1446.85,1219.69 1454.15,1219.79C1461.45,1219.9 1491,1190.18 1497.58,1178.1C1504.16,1166.01 1522.91,1136.19 1531.31,1132.18C1539.71,1128.17 1550.37,1119.12 1556.26,1110.29C1562.16,1101.45 1576.74,1090.97 1585.43,1088.02C1594.11,1085.07 1587.91,1079.58 1602.56,1062.53C1617.2,1045.49 1653.69,999.551 1656.97,987.212C1660.26,974.874 1664.45,976.398 1671.89,977.046C1679.32,977.695 1769.51,1009.33 1802.52,1017.8C1835.54,1026.27 1985,1090.45 2002.78,1104.02C2020.55,1117.6 2081.1,1170.79 2092.59,1173.07C2104.07,1175.34 1844.31,1381.2 1822.33,1395.85C1800.35,1410.5 1443.24,1716.28 1459.5,1675.28Z" style="fill:rgb(118,133,132);"/>
        <path d="M1927.13,1067.43C1927.13,1067.42 1927.13,1067.4 1927.13,1067.39C1927.83,1061.34 1936.88,1054.4 1945.47,1061.7C1954.07,1069 1954.71,1071.83 1963.86,1063.99C1973.01,1056.15 1978.65,1061.12 1984.58,1066.87C1990.5,1072.63 2005.55,1092.12 2022.19,1101.23C2038.83,1110.35 2040.51,1111.57 2046.95,1119.54C2053.39,1127.51 2062.96,1135.59 2078.64,1144.2C2094.31,1152.82 2125.41,1157.52 2130.79,1164.56C2136.16,1171.61 2136.2,1171.85 2136.41,1182.28C2136.62,1192.71 2089.75,1174.57 2080.71,1169.28C2071.66,1163.99 2066,1160.65 2057.57,1158.07C2049.14,1155.48 2046.98,1148.9 2043.21,1144.99C2039.45,1141.08 2031.08,1128.34 2024.09,1125.96C2017.09,1123.57 2009.42,1119.67 2005.54,1113.02C2001.66,1106.38 1989.31,1097.99 1984.04,1095.87C1978.76,1093.75 1964.32,1091.71 1962.28,1087.16C1960.73,1083.69 1940.8,1077.57 1931.65,1072.17C1937.62,1079.56 1938.32,1086.79 1940.64,1096.47C1943.32,1107.66 1921.06,1089.59 1920,1098.06C1918.94,1106.52 1933.94,1108.39 1935.66,1113.69C1937.39,1118.99 1917.17,1128.68 1901.61,1119.83C1886.04,1110.99 1883.03,1122.07 1879.47,1132.3C1875.9,1142.53 1884.21,1142.44 1885.94,1149.67C1887.67,1156.9 1892.66,1160.26 1896.2,1166.95C1899.74,1173.63 1886.43,1200.65 1888.37,1203.7C1890.32,1206.75 1903.71,1187.1 1907.9,1173.07C1912.09,1159.03 1921.5,1155.28 1929.83,1154.36C1938.16,1153.43 1943.89,1157.93 1950.15,1157.93C1956.41,1157.93 1958.7,1162.98 1956.3,1173.07C1953.91,1183.15 1966.58,1162.48 1973.61,1161.38C1980.63,1160.29 1990.8,1152.24 2008,1149.48C2025.2,1146.72 2032.15,1167.77 2035.75,1179.29C2039.35,1190.82 2031.27,1192.76 2023.68,1196.77C2016.09,1200.77 1990.77,1198.58 1975.09,1211.16C1959.41,1223.74 1948.12,1227.42 1939.31,1230.56C1930.49,1233.69 1892.49,1262.28 1875.89,1271.95C1859.28,1281.61 1858.73,1272.34 1847.99,1261.32C1837.26,1250.3 1842.02,1239.52 1839.36,1230.08C1836.69,1220.64 1824.72,1242.6 1819.29,1257.41C1813.86,1272.21 1780.67,1278.39 1769.79,1285.74C1758.91,1293.09 1762.56,1274.71 1762.87,1265.01C1763.18,1255.31 1755.15,1249.53 1743.36,1255.57C1731.57,1261.62 1713.99,1270.39 1698.52,1282.67C1683.04,1294.95 1662.88,1303.67 1652.08,1304.53C1641.27,1305.38 1653.97,1271.98 1656.86,1268.82C1659.74,1265.65 1663.81,1259.38 1656.43,1253.73C1649.05,1248.08 1631.95,1251.51 1624.92,1256.45C1617.88,1261.39 1594.26,1290.01 1583.07,1298.69C1571.87,1307.36 1575.45,1295.77 1574.44,1282.85C1573.42,1269.94 1577.74,1272.82 1578.46,1264.67C1579.19,1256.52 1576.8,1250.34 1576.86,1242.41C1576.92,1234.49 1592.11,1219.55 1584.95,1217.77C1577.79,1215.99 1576.83,1192.99 1578.67,1182.41C1580.5,1171.84 1557.98,1187.53 1549.24,1191.51C1540.51,1195.5 1545.13,1173.07 1547.27,1157.23C1549.41,1141.38 1577.79,1128.84 1582.94,1122.73C1588.1,1116.61 1594.09,1110.82 1604.22,1102.17C1614.36,1093.52 1608.86,1091.44 1607.41,1080C1605.96,1068.56 1609.86,1056.77 1619.63,1050.38C1629.4,1044 1619.27,1073.09 1626.47,1074.88C1633.67,1076.67 1637.65,1065.72 1644.97,1062.64C1652.29,1059.57 1650.48,1048.98 1658.57,1038.83C1666.65,1028.69 1676.72,1036.72 1678.34,1026.83C1679.95,1016.93 1681.63,1013.25 1686.85,1013.47C1692.06,1013.69 1693.69,1007.87 1704.72,1000.17C1715.74,992.476 1700.61,992.332 1684.91,990.379C1669.21,988.427 1663.67,975.935 1674.75,970.394C1685.84,964.852 1700.03,972.108 1707.84,964.813C1715.65,957.519 1722.65,959.36 1733.18,963.975C1743.72,968.59 1744.18,962.9 1751.98,959.955C1759.77,957.01 1777.36,967.441 1781.97,971.488C1786.58,975.535 1798.97,980.308 1805.22,985.925C1811.48,991.542 1815.77,990.821 1823.37,992.773C1830.98,994.726 1838.17,994.565 1847.51,994.889C1856.85,995.214 1862.33,1007.94 1875.36,1008.45C1888.39,1008.96 1888.41,1014.12 1895.4,1016.02C1902.39,1017.92 1920.4,1026.99 1929.53,1029.24C1938.67,1031.49 1939.41,1040.05 1949.81,1049.04C1960.2,1058.03 1939.77,1053.44 1926.49,1054.05C1913.86,1054.62 1918.88,1059.51 1927.13,1067.43ZM1711.68,1317.47C1718.83,1315.76 1723.94,1310.89 1721.86,1317.97C1719.43,1326.28 1705.49,1342.13 1698.58,1343.32C1697.32,1344.86 1695.95,1346.28 1694.43,1347.43C1686.24,1353.64 1672.37,1335.64 1672.79,1331.07C1673.21,1326.5 1679.49,1315.13 1696.24,1312.3C1703,1311.15 1708.27,1313.9 1711.68,1317.47ZM1627,1369.55C1616.94,1371.09 1620.72,1367.46 1614.55,1368.09C1608.37,1368.72 1597.77,1381.6 1587.59,1386.43C1577.42,1391.26 1584.37,1374.31 1585.5,1360.84C1586.63,1347.38 1594.74,1341.21 1599.29,1328.82C1603.84,1316.42 1626.76,1330.8 1638.14,1335.6C1649.51,1340.41 1648.92,1338.53 1650.42,1357.27C1651.91,1376.02 1637.07,1368 1627,1369.55ZM1538.75,1332.25C1533.11,1330.27 1542.12,1318.64 1547,1314.24C1551.88,1309.85 1567.6,1312.18 1558.97,1328.82C1550.35,1345.45 1544.4,1334.24 1538.75,1332.25ZM1467.61,1459.53C1456.14,1469.26 1463.62,1458.13 1456.28,1448.93C1448.94,1439.74 1485.53,1426.7 1493.58,1435.53C1501.63,1444.36 1479.07,1449.79 1467.61,1459.53ZM1543.21,1230.73C1557.07,1236.52 1554.37,1240.53 1545.42,1266.72C1536.48,1292.91 1498.21,1317.42 1501.15,1312.04C1504.09,1306.65 1505.64,1285.74 1506.06,1278.48C1506.47,1271.23 1517.16,1268.04 1522.85,1259.82C1528.54,1251.61 1529.35,1224.93 1543.21,1230.73Z" style="fill:rgb(51,108,69);"/>
    </g>
</svg>
