<?xml version="1.0" encoding="UTF-8" standalone="no"?>
<!DOCTYPE svg PUBLIC "-//W3C//DTD SVG 1.1//EN" "http://www.w3.org/Graphics/SVG/1.1/DTD/svg11.dtd">
<svg width="100%" height="100%" viewBox="0 0 1023 360" version="1.1" xmlns="http://www.w3.org/2000/svg" xmlns:xlink="http://www.w3.org/1999/xlink" xml:space="preserve" xmlns:serif="http://www.serif.com/" style="fill-rule:evenodd;clip-rule:evenodd;stroke-linejoin:round;stroke-miterlimit:2;">
    <path d="M166.43,126.68C156.78,126.68 153.99,130.96 153.99,140.4L153.99,156.06L179.73,156.06L177.15,181.36L154,181.36L154,258.14L123.11,258.14L123.11,181.36L102.3,181.36L102.3,156.06L123.11,156.06L123.11,140.83C123.11,115.31 133.4,101.83 162.11,101.83C168.126,101.816 174.138,102.173 180.11,102.9L180.11,126.71L166.43,126.68Z" style="fill:rgb(24,119,242);fill-rule:nonzero;"/>
    <path d="M181.87,203.88C181.87,175.36 195.38,153.88 223.69,153.88C239.13,153.88 248.56,161.82 253.07,171.68L253.07,156.06L282.66,156.06L282.66,258.14L253.07,258.14L253.07,242.7C248.78,252.57 239.13,260.29 223.69,260.29C195.38,260.29 181.87,238.84 181.87,210.29L181.87,203.88ZM212.75,210.75C212.75,225.97 218.32,236.05 232.69,236.05C245.35,236.05 251.78,226.83 251.78,212.25L251.78,202C251.78,187.42 245.35,178.2 232.69,178.2C218.32,178.2 212.75,188.28 212.75,203.5L212.75,210.75Z" style="fill:rgb(24,119,242);fill-rule:nonzero;"/>
    <path d="M347,153.91C359,153.91 370.37,156.49 376.59,160.77L369.73,182.65C363.296,179.586 356.266,177.975 349.14,177.93C332.41,177.93 325.14,187.58 325.14,204.1L325.14,210.1C325.14,226.62 332.43,236.27 349.14,236.27C356.266,236.225 363.296,234.614 369.73,231.55L376.59,253.42C370.37,257.71 359.01,260.29 347,260.29C310.75,260.29 294.24,240.77 294.24,209.46L294.24,204.74C294.24,173.43 310.75,153.91 347,153.91Z" style="fill:rgb(24,119,242);fill-rule:nonzero;"/>
    <path d="M380.66,211L380.66,202C380.66,173.05 397.17,154 430.85,154C462.59,154 476.53,173.3 476.53,201.61L476.53,217.91L411.53,217.91C412.18,231.85 418.4,238.07 435.53,238.07C447.12,238.07 459.34,235.71 468.35,231.85L474,253C465.85,257.3 449.12,260.51 434.33,260.51C395.24,260.5 380.66,241 380.66,211ZM411.54,197.7L448.86,197.7L448.86,195.13C448.86,183.98 444.36,175.13 430.86,175.13C416.91,175.14 411.54,183.94 411.54,197.66L411.54,197.7Z" style="fill:rgb(24,119,242);fill-rule:nonzero;"/>
    <g transform="matrix(19.4825,0,0,19.4825,-9241.05,-3792.58)">
        <text x="499.257px" y="208.111px" style="font-family:'HelveticaNeue-Bold', 'Helvetica Neue';font-weight:700;font-size:12px;fill:rgb(24,119,242);">list</text>
    </g>
</svg>
